<?xml version="1.0" encoding="UTF-8"?>
<svg xmlns="http://www.w3.org/2000/svg" viewBox="0 0 209 302">
<title>Ilustração — Nabo branco</title>
<path fill="#017023" d="M103.08.01c.93,1.66,1.24,3.56,1.61,5.87,2.52,15.46,7.59,35.74,7.48,49.02l-.27,33.28-.63,16.55-1.05,15.9-.99,11.96c-.52,6.34-1.06,12.37-1.64,18.25-1.89.6-4,1.18-5.84,1.87l-31.81-47.3-5.55-8.44c-6.1-12.36-15.77-24.69-20.76-38.02l-14.95-39.97c6.58-2.64,12.76-4.46,19.83-5.82,5.9,25.86,14.22,50.12,26.3,73.27l11.67,22.35c2.69,5.16,4.51,10.37,8.45,14.93l-22.63-71.47-14.64-43.03c3.25-.4,5.62-2.02,8.41-2.78l14.2-3.89,13.43,63.1c1.35,6.36,1.65,12.41,3.73,18.28-.54-26.87-5.96-52.42-14.34-78.25L100.52,0h2.56Z"/>
<path fill="#DAD2CB" d="M205.11,175.29l3.89,15.08v17.94c-.29.18-1.09.24-.99-.61l-20.95-1.5c-21.86,1.04-43.15,3.47-64.4,8.36-12.67,2.92-23.5,9.17-35.18,15.03-4.98-7.27-7.54-15.92-7.47-24.74,10.85-6.36,22.25-10.23,33.52-15.47,8.22-3.82,15.98-6.35,25.12-7.75,22.27-3.39,44.28-4.91,66.46-6.34Z"/>
<path fill="#C6C1BD" d="M201.3,167.38c.86,2.49,3.11,5.02,3.82,7.91-22.18,1.44-44.19,2.95-66.46,6.34-9.14,1.39-16.91,3.92-25.12,7.75-11.26,5.24-22.67,9.11-33.52,15.47-.07,8.81,2.49,17.46,7.47,24.74,11.68-5.86,22.51-12.11,35.18-15.03,21.25-4.9,42.54-7.32,64.4-8.36l20.95,1.5c.62,3.16-.39,5.34-1.03,7.53l-49.49,3.44c-9.29.61-18.5.84-27.47,3.4-12.49,3.57-23.94,9.02-35.52,14.74,8.49,5.07,14.98,9.21,21.49,14.76,7.63-3.35,14.43-5.97,22.12-7.67,13.48-2.02,52.13-4.94,53.87-3.08.25.26.2,1.07.13,1.45-1.14,1.28-2.79,2.72-3.8,3.98-22.9.58-45.3-.02-67.3,10.13,8.64,8.18,22.84,29.87,17.9,32.77-.58.34-1.86-.14-2.59-.25-4.38-3.3-9.46-5.51-14.96-6.59-4.4-2.65-9.91-4-14.85-3.27l-1.06.16c-1.6-1.87-4.23-1.73-6.88-2.17l-11.95-1.98-1.04.03c-.51-1.08-1.88-1.18-2.97-1.01-3.24.51-6.16-1.44-9.34-2.49-7.11-2.35-12.23-6.54-16.07-13.03-5.73-9.7-9.66-20.46-11.84-31.26l.41-20.98.02-1.02c1.26-.8.92-2.59.96-3.95l.02-1.02c1.08-.2.82-1.54.75-2.18,4.66-14.27,15.65-25.89,29.16-32.51.87-.42,1.58-1.41,1.93-2.2l1.98-1c.4-.2.72-.63,1.01-.99.2.14.75.49,1.02.47,1.11-.08,2.34-.85,4.65-.43-2.72,10.82-6.05,20.62-6.9,32.6,12.73-6.99,25.06-11.54,38.78-14.99,27.1-6.82,54.39-10.07,82.13-11.73Z"/>
<path fill="#DAD2CB" d="M201.3,167.38c-27.75,1.65-55.03,4.91-82.13,11.73-13.73,3.45-26.06,8-38.78,14.99.85-11.99,4.18-21.78,6.9-32.6-2.3-.41-3.54.36-4.65.43,3.46-3.91,12.31-6.62,19.13-9.21,1.84-.7,3.95-1.28,5.84-1.87,23.67-7.47,49.81-8.77,74.36-2.33,10.15,2.67,16.13,9.56,19.33,18.86Z"/>
<path fill="#DAD2CB" d="M192.11,242.27c.08-.38.12-1.19-.13-1.45-1.74-1.86-40.39,1.06-53.87,3.08-7.69,1.7-14.49,4.31-22.12,7.67-6.51-5.55-12.99-9.68-21.49-14.76,11.58-5.72,23.03-11.17,35.52-14.74,8.97-2.56,18.18-2.79,27.47-3.4l49.49-3.44c-3,10.16-7.83,19.11-14.87,27.04Z"/>
<path fill="#048328" d="M64.41,96.98l5.55,8.44,31.81,47.3c-7.17-4.12-12.13-10.34-18.14-16.33l-35.81-35.72c-10.53-10.5-20.03-21.3-27.75-33.96L1.52,36.32c5.99-4.17,11.09-7.11,17.79-9.9,10.62,23.06,22.7,44.53,38.52,64.06,2.1,2.59,3.12,4.96,6.57,6.5Z"/>
<path fill="#DAD2CB" d="M188.31,246.25c-3.03,3.83-7.08,6.64-10.59,10.32-11.08,11.6-23.17,28.64-12.19,40.16.95,1,.88,2.64.23,3.34-3.17,3.38-21.87-5.46-29.45-11.17.73.11,2.01.59,2.59.25,4.94-2.91-9.26-24.59-17.9-32.77,22-10.15,44.4-9.54,67.3-10.13Z"/>
<path fill="#D6CFC8" d="M45.37,227.3l-.64-19.05c-.04-1.07.4-1.84,1.05-1.93l-.41,20.98Z"/>
<path fill="#DAD3CC" d="M121.36,282.31l-14.85-3.27c4.94-.73,10.45.62,14.85,3.27Z"/>
<path fill="#DAD3CC" d="M105.45,279.2c-6.3-.65-12.88-1.98-18.83-4.14l11.95,1.98c2.65.44,5.28.29,6.88,2.17Z"/>
<path fill="#D6CFC8" d="M45.8,205.3c.03-1.35-.29-3.14.96-3.95-.03,1.36.3,3.14-.96,3.95Z"/>
<path fill="#DAD3CC" d="M85.58,275.08c-1.1.03-2.44.1-2.97-1.01,1.08-.17,2.46-.08,2.97,1.01Z"/>
<path fill="#D6CFC8" d="M46.78,200.34c.02-.82.18-1.69.75-2.18.07.64.34,1.97-.75,2.18Z"/>
<path fill="#DAD2CB" d="M80.6,162.44l1.01-.99c-.29.36-.61.79-1.01.99Z"/>
<path fill="#DAD2CB" d="M76.69,165.65c.3-1.15,1.04-1.75,1.93-2.2-.35.79-1.07,1.78-1.93,2.2Z"/>
</svg>
