<?xml version="1.0" encoding="UTF-8"?>
<svg id="Layer_2" data-name="Layer 2" xmlns="http://www.w3.org/2000/svg" viewBox="0 0 373.67 145.39">
  <g id="Layer_1-2" data-name="Layer 1">
    <g>
      <g>
        <g>
          <path d="M208.67,43.21c-1.81-.49-8.86-.66-9.93-.25-.29.12-1.72.55-3.17.95-1.43.4-3.82,1.21-5.25,1.77-2.64,1.04-7.3,1.68-41.46,5.66-19.51,2.28-53.63,5.25-70.34,6.13-9.51.49-23.35,1.24-30.8,1.64-7.43.41-14.25.69-15.13.63-.88-.08-4.34-.38-7.71-.68-8.11-.75-16.35-.28-19.14,1.07C2.22,61.82-.23,66.66.02,71.36c.11,2.26,1.6,6.11,3.12,8.15,3.91,5.21,12.74,9.04,21.16,9.14l2.09.03c1.13,0,2.15.67,2.64,1.69l1.96,4.16c.41.85.79,1.69,1.16,2.51,2.04,4.61,3.59,8.85,6.05,14.34.61,1.34,1.26,2.76,1.99,4.28,1.62,3.39,6.88,9.15,11.02,13.23l4.72-11.77c-9.9-5.65-16.18-19.18-15.38-22.43.85-3.49,5.27-1.72,7.02,1.98,1.45,3.11,3.87,5.43,3.87,5.43,0,0,.36-.24.99-.47-.11-1.48-.21-3.11-.28-4.9-.66-15.1.04-25.76,3.04-25.99,2.94-.23,5.39,20.73,5.47,21.36-.01-.59-.12-17.89.46-21.69.59-3.87,4.48-3.57,5.05,1.68.55,5.25,1.81,19.7,1.81,19.7,0,0,2.85-10.41,4.13-14.97,1.29-4.56,2.62-5.34,4.14-4.38,1.52.97-.01,12.51-1.48,21.3,0,0,7.03-16.77,9.55-15.32,2.5,1.45-3.14,18.9-3.14,18.9,0,0-3.99,17.32-7.21,20.32-.55.51-1.32.92-2.23,1.24l-5.03,20.27c.17.08.34.15.52.21,6.38,2.5,14.02,4.22,23.08,5.22,3.03.33,6.22.59,9.57.76,1.15.06,2.65.07,4.37.04l-2.57-13.12c-.96-.38-1.75-.86-2.32-1.44-3.27-3.35-6.59-21.99-6.59-21.99,0,0-5.08-18.88-2.33-20.29,2.75-1.41,9.34,16.81,9.34,16.81-1.1-9.44-2.11-21.8-.44-22.75,1.67-.94,3.04-.03,4.17,4.89.16.69.34,1.5.54,2.4,1.23,5.45,3.06,13.74,3.06,13.74,0,0,2.11-15.31,2.97-20.87.88-5.55,5.04-5.66,5.46-1.51.42,4.07-.63,22.47-.65,23.11.11-.67,3.83-22.85,6.96-22.45,3.17.41,3.36,11.79,1.85,27.83-.18,1.9-.37,3.62-.57,5.19.65.28,1.04.55,1.04.55,0,0,2.69-2.34,4.41-5.57,2.04-3.84,6.84-5.5,7.56-1.73.68,3.49-6.71,17.56-17.56,23.05l4.5,13.04c5.83-.53,11.08-1.17,13.76-1.77,12.6-2.83,21.38-6.82,28.69-13.47l-10.42-16.38c-.97,0-1.83-.16-2.51-.47-4.02-1.82-13.29-16.98-13.29-16.98,0,0-10.9-14.76-8.97-16.93,1.91-2.16,13.91,11.5,13.91,11.5-4.19-7.88-9.3-18.33-8.17-19.73,1.14-1.4,2.65-1.07,5.32,2.84,2.66,3.92,8.67,12.89,8.67,12.89,0,0-3.4-14.11-4.54-19.27-1.14-5.15,2.46-6.66,4.25-3.19,1.74,3.36,6.98,19.36,7.32,20.39-.24-1.15-4.41-21.26-1.58-21.96,2.91-.73,6.96,9.15,11.13,23.68.49,1.72.92,3.3,1.28,4.74.67.02,1.1.13,1.1.13,0,0,1.55-2.97,1.95-6.38.47-4.06,4.1-7.15,6.02-4.1,1.78,2.82.13,17.64-7.47,26.15l7.51,8.83c2.02-3.21,3.84-6.54,5.46-10.01h0c.88-1.88,1.69-3.78,2.44-5.73.91-2.28,1.87-6.33,2.7-10.28.89-4.2,1.62-8.29,1.93-10.08.25-1.41.59-2.09,1.1-2.27.41-.14,1.75-.56,3.01-.94,3.13-.92,9.16-3.66,11.93-5.41,5.77-3.66,10.09-8.6,11.35-12.95,1.9-6.53-1.41-12.08-8.29-13.91ZM25.77,82.54c-.32.47-6.39-.56-9.29-1.59-7.13-2.52-10.54-5.7-10.77-10.04-.1-1.75.5-2.95,1.71-3.37.41-.15,1.08-.39,1.47-.53,1.23-.44,2.54-.5,7.18-.34,6.56.25,5.96-.13,6.71,4.2.35,2.02,1.21,5.45,1.88,7.58.68,2.13,1.19,3.98,1.11,4.09ZM211.5,54.31c-.73,2.83-5.16,6.87-10.92,9.96-1.18.63-2.66,1.34-4.04,1.93-2.1.89-4.37-.8-4.12-3.04.06-.47.12-.95.17-1.46.38-3.22.78-6.77.89-7.93.11-1.24,1.01-2.3,2.24-2.61l.94-.23c3.53-.9,9.29-1.02,11.77-.25.93.29,2.13.91,2.61,1.34.81.73.83.88.46,2.29Z"/>
          <path d="M214.36,99.34s0,.09,0,.14v-.07s0-.05,0-.06Z"/>
        </g>
        <ellipse cx="104.13" cy="26.33" rx="5.12" ry="7.14" transform="translate(74.37 129.53) rotate(-88.1)"/>
        <path d="M214.36,99.34s0,.09,0,.14v-.07s0-.05,0-.06Z"/>
        <path d="M190.82,29.48c-.11.43-.43.88-1.03,1.39l-.05.03c-11.01,12.22-105.69,19.24-135.3,19.55-10.79-.01-31.68.13-33.87-4.26l.13-3.82c.05-1.41,1.08-2.59,2.48-2.83,3.57-.58,10.94-1.76,20.62-3.2.02-.01.06-.01.09-.02,24.23-5.33,60.29-9.09,72.44-10.06,15.99-1.28,28.81-2.06,41.2-2.01h.01c12.35-.73,22.25-1.22,26.95-1.53,2.09-.14,4.06,1.04,4.93,2.95.41.92.74,1.79.97,2.48.39.39.55.83.42,1.33Z"/>
      </g>
      <g>
        <path d="M328.51,81.05c-1,3.98-1.5,8.44-2.8,12.3-.12,1.84-1.82,3.02-3.4,1.73-.5-.45-1.05-1.13-1.43-1.65-.65-4.39.25-9.29-.5-13.67-1.06-.8-2.64-.46-3.87-.88-1.34-.16-2.84-.91-4.15-.38-.48.23-.85.89-1.05,1.4-1.42,3.52-3.17,6.89-4.54,10.37-.42,1.04-.56,2.42-1.5,3.15-1.98,1.39-4.83.45-7.01.03-10.24-2.55-10.48-16.01-1.84-20.93,1.19-.85,2.69-.78,4.18-.95.57-.09,1.18-.07,1.39-.44.11-5.75,0-11.6-.39-17.35-.08-.57.23-1.51.79-1.55.57.15,1.46-.33,1.92.15.44.58.44,1.4.59,2.09.95,9.49.84,19.1.88,28.6.2,2.46,1.54-.9,1.93-1.56,3.93-9.23,7.74-18.82,12.29-27.81.81-.61,3.06-.96,4.02-.6.59.17.79,1.11.77,1.73-.12,7.69-.19,15.53-.19,23.3,0,.59-.1,7.85.89,5.93,2.39-8.09,4.29-16.34,5.98-24.69.16-.76.42-1.67,1.04-2.14,1.39-.78,3.22-.46,4.73-.36,8.03,2.4,2.04,13.23-1.89,17.01-1.12,1.24-2.1,2.62-3.05,3.98-.23.43-.15.9.24,1.23,4.47,3.72,8.95,7.29,13.82,10.33.51.22.43-.19.45-.73.25-4.47.13-9.05.49-13.46.14-1.53,2.2-3.31,3.53-2.04.47.48.55,1.42.5,2.1-.55,6.38-.45,12.86-1.01,19.14-.28,1.06-1.46,2.67-2.7,1.76-.64-.45-1.02-1.29-1.56-1.72-5.73-4.56-12.11-8.48-17.43-13.45l-.09.03ZM299.43,89.8c3.26.53,3.34-1.71,2.98-4.27-.45-3.2-.02-6.44-.21-9.63-.02-.81-1.01-1.73-1.69-1.89-5.85.27-8.91,6.41-6.17,11.87.91,2.04,2.65,3.85,4.93,3.92l.17.02ZM320.09,59.52c-.11-.04-.36-.02-.43.19-1.33,3.46-2.9,7.25-4.36,10.78-.45,1.05-.9,2.11-1.38,3.15-.29.61-.61,1.57.23,1.79,1.72.42,3.81.55,5.61.76.22-.02.38-.09.48-.25.35-5.34,0-10.94-.08-16.34l-.06-.08ZM330.32,74.29c2.84-2.98,5.91-5.83,7.06-10.02.44-1.62-.21-2.74-1.92-3.2-1.25-.33-1.93.2-2.37,1.95-.94,3.75-1.85,7.52-2.78,11.27Z"/>
        <path d="M323.89,29.15c1.03-1.24,2.07-2.47,3.1-3.72,2-2.42,4.72-3.32,7.7-3.36.85-.01,1.97.63,2.53,1.33,1.13,1.4,1.96,3.03,2.97,4.66,1.28-2.1,2.66-4.41,4.08-6.69,2.71-4.36,5.53-8.65,8.14-13.07.75-1.27.83-2.92,1.42-4.3.41-.95.99-2.07,1.82-2.53,1.44-.8,2.76.28,3.12,1.95.91,4.27,1.74,8.57,2.98,12.75,1.21,4.05,2.63,4.56,6.84,3.6.84-.19,1.92.09,2.71.5.26.13.16,1.45-.13,2.05-.5,1.03-1.29,1.89-2.68,1.47-.28-.09-.56-.22-.85-.26-3.03-.4-3.58.37-2.72,3.28,1.45,4.88,2.89,9.76,4.02,14.72.2.88-.88,2.62-1.79,3.05-.98.46-2.73.52-3.2-1.44-.73-3.01-1.54-6.01-2.39-8.99-.92-3.21-1.9-6.41-2.94-9.59-.1-.31-.84-.6-1.28-.59-3.19.02-6.39.03-9.57.26-.83.06-1.95.67-2.35,1.37-1.87,3.26-3.5,6.67-5.3,9.98-.58,1.07-1.34,2.07-2.14,2.99-.27.31-1.13.55-1.36.36-.64-.52-1.44-1.22-1.54-1.94-.13-.99.4-2.05.52-3.09.2-1.75.55-3.53.38-5.25-.24-2.44-2.29-3.51-4.4-2.26-1.48.87-2.86,2.14-3.85,3.55-1.51,2.14-2.67,4.54-3.92,6.85-.83,1.55-1.45,3.23-3.39,3.79-1.33.38-2.45-.31-2.38-1.7.26-5.19.7-10.38.85-15.57.11-4.01-.05-8.03-.24-12.04-.15-3.16-.06-6.26.99-9.27.43-1.24,1.18-2.32,2.73-1.89,1.4.39,2.33.87,2.12,2.94-.5,4.92-.46,9.9-.64,14.86-.11,3.07-.22,6.13-.33,9.2-.02.62-.04,1.25-.06,1.87.15.06.29.13.44.19ZM354.68,10.62c-1.86,2.97-3.41,5.5-5.02,7.99-.95,1.47-.06,1.84,1.11,1.83,1.87-.03,3.75-.18,5.6-.43.35-.05.94-.85.86-1.16-.72-2.58-1.56-5.13-2.54-8.24Z"/>
        <path d="M296.38,15.74c-.14,5.07-.24,10.15-.44,15.22-.15,4-.35,8.01-.69,12-.08.91-.76,1.83-1.34,2.62-.23.31-1.11.52-1.42.33-1.22-.76-2.38-1.64-3.44-2.6-.36-.33-.58-1.1-.49-1.59,1.61-8.54.98-17.23,1.85-25.82.3-2.98.2-6.01.28-9.01.05-1.98,2.04-3.55,3.92-3.14.5.11,1.09-.12,1.54.05.6.22,1.57.66,1.6,1.05.2,3.75,2.63,6.46,4.23,9.55,2.3,4.44,4.64,8.87,6.96,13.31.11.2.21.41.4.77.33-2.75.66-5.31.94-7.89.6-5.46,1.15-10.93,1.77-16.39.1-.85.31-1.84.84-2.45.41-.47,1.53-.77,2.08-.54.54.23,1.13,1.28,1.04,1.87-.53,3.63-1.44,7.21-1.85,10.85-.54,4.81-.84,9.66-1.06,14.5-.17,3.6.09,7.21-.14,10.8-.08,1.15-.9,2.49-1.78,3.3-.95.87-1.85.03-2.29-1.01-2.91-6.84-5.75-13.7-8.75-20.5-.85-1.92-2.17-3.62-3.28-5.43l-.48.16Z"/>
        <path d="M354.26,93.62c-.12.55-.07,1.23-.39,1.63-.38.48-1.27,1.12-1.56.97-.59-.31-1.37-1.18-1.28-1.68.6-3.21,1.39-6.39,2.15-9.57.97-4.05,1.96-8.09,2.97-12.12,1.06-4.24,2.17-8.47,3.22-12.71.28-1.15.44-2.32.65-3.48.26-1.39,2.83-2.97,4.08-2.41.37.17.71.74.79,1.17,1.05,5.76,2.11,11.52,3.04,17.3,1.47,9.13,2.83,18.28,4.26,27.42.46,2.93,1.16,5.84,1.45,8.78.1,1.05-.58,2.24-1.1,3.26-.14.28-1.15.43-1.51.22-1.93-1.12-3.11-2.76-3.3-5.1-.32-3.98-.7-7.96-1.12-11.93-.41-3.84-.94-7.67-1.33-11.51-.14-1.37-.64-1.96-2.06-1.68-2.02.4-4.07.63-6.06,1.13-.52.13-1.09.94-1.22,1.54-.66,2.91-1.18,5.85-1.75,8.78.02,0,.03,0,.05.01ZM362,62.68c-.2,0-.41,0-.61.01-1.03,4.03-2.08,8.05-3.06,12.09-.3,1.24-.37,2.53-.56,3.79-.11.75.05,1.18.95,1.1,1.53-.14,3.07-.3,4.6-.3,1.07,0,1.18-.45,1.05-1.32-.45-3.05-.83-6.12-1.29-9.17-.31-2.07-.71-4.13-1.07-6.19Z"/>
        <path d="M268.57,9.08c-2.56.45-4.54.75-6.51,1.15-1.4.29-2.37-.39-2.47-1.58-.05-.6.95-1.65,1.66-1.86,1.63-.48,3.38-.52,5.07-.82,1.51-.27,3.03-.52,4.48-1,2.7-.9,4.31.05,3.7,2.71-1.19,5.24-2.77,10.38-4.17,15.57-.47,1.75-.81,3.55-1.37,5.27-1.08,3.31-2.3,6.58-3.42,9.89-.4,1.16-.67,2.37-1.11,3.93,2.95-.44,5.67-.9,8.4-1.23,1.87-.23,3.76-.28,5.63-.43,1.29-.11,2.05-.64,2.05-2.12,0-3.78.12-7.56.17-11.34.03-1.7,1.26-2.87,2.94-2.74,2.19.16,3.05,1.18,2.89,3.12-.36,4.23-.56,8.47-.95,12.69-.11,1.2-.56,2.41-1.04,3.53-.39.9-1.1,1.16-2.29,1.07-2.78-.21-5.61-.12-8.4.12-3.71.31-7.41.84-11.1,1.32-.61.08-1.19.43-1.8.55-.62.12-1.5.4-1.85.11-.53-.44-1.1-1.41-.96-1.99.7-2.84,1.7-5.61,2.46-8.43,1.51-5.61,2.84-11.27,4.43-16.85.99-3.5,2.31-6.9,3.57-10.61Z"/>
        <path d="M253.96,88.61c-.96,7.54-8.09,18.95-16.44,12.39-1.56-1.16-3.46-3.45-2.62-5.35.37-.88,1.46-.6,1.94-.15,1.35,1.16,2.46,2.86,4.13,3.47,2.3.79,4.25-.98,5.99-2.64,2.39-2.5,3.09-5.82,2.57-9.04-.62-4.29-2.77-5.86-6.96-5.74-4.19-.35-10.95-1.89-9.64-7.27,1.19-6.31,6.48-11.43,12.52-13.02,2.13-.14,1.7,1.34-.25,2.55-2.91,1.94-6.1,4.11-7.56,7.4-3.26,9.81,16.89.12,16.35,17.17l-.03.24Z"/>
        <path d="M276.63,64.12c-.3,7.17-1.46,14.56-1.6,21.73-.02.94-.09,2.25.71,2.87.76.6,2.19.31,3.26.19,1.33-.24,2.78-.01,4.1-.43.74-.3.9-1.12.96-1.85.25-3.79.29-7.62.5-11.4.56-3,3.1-4.41,4.52-.92.37,4.45-.42,9.05-.67,13.5.41,3.5-1.76,6.12-5.4,5.4-2.75.1-5.5.09-8.24-.03-.95-.03-1.97-.27-2.59-1.03-1.21-1.59-.49-3.85-.57-5.72.31-8.43,2.07-16.89,1.28-25.41-.09-1.12-.26-2.29.13-3.37.5-1.47,2.59-2.8,3.59-1.16.62,1.08.29,2.45.34,3.72-.08,1.25.02,2.59-.3,3.75l-.04.16Z"/>
        <path d="M270.07,76.12c-.55,5.16-1.78,11.25-4.78,15.51-2.07,2.74-6.16,3.02-8.38.25-3.79-5.56-2.35-14.98-.96-21.3.97-4.96,5.89-10.2,10.96-6.7,3.55,2.67,3.39,7.87,3.17,11.99l-.02.25ZM265.38,79.97c.38-3.53.4-7.35-.6-10.79-1.74-5.6-5.36-3.16-6.41,1.87-1.12,4.76-1.25,9.76-.85,14.57.04,3.04,2.65,7.04,5.42,3.51,1.67-2.44,1.98-5.99,2.42-8.9l.03-.26Z"/>
        <path d="M230.67,19.72c1.2-4.42,2.36-12.31,7.99-12.12,2.6.26,6.35,2.47,6.36,5.28-.09.6-.57.87-1.26.72-1.3-.27-2.93-1.99-4.14-1.59-2.72,1.29-2.82,5.62-3.47,8.26-.93,6.1.12,12.38,1.41,18.3.63,2.47,1.38,5.13,2.88,7.2,1.24,1.73,3.55,2.24,5.42,1.28,2.14-.89,3.03-3.39,4.51-4.85.93-1.09,2.73-1.19,2.94.4-.19,5.34-7.43,10.63-12.67,9.81-9.48-2.84-10.92-24.03-10.03-32.41l.05-.28Z"/>
        <path d="M260.19,26.6c-.43,5.56-6.68,11.57-11.8,7.3-4.88-4.97-3.03-14.37,1.48-19.08,8.05-7.39,11.68,4.94,10.37,11.48l-.05.3ZM250.38,25.75c-.48,3.52,2.19,8.71,5.4,4.23,1.48-2.28,1.61-5.44,1.38-8.28-.16-2.33-.75-4.94-1.86-4.98-.74-.02-1.24.58-1.71,1.14-1.57,2.19-2.89,4.92-3.19,7.58l-.03.31Z"/>
        <path d="M324.62,51.42c-.94-.37-1.38-1.34-.9-2.08,1.04-1.4,3.37-1.22,4.97-1.45,2.31.11,12.13-3.43,10.57,1.32-.54.93-1.72,1.25-2.75,1.41-3.99.31-7.95,1.43-11.69.88l-.2-.08Z"/>
        <path d="M289.25,64.51c-.24,1.63-1.22,2.8-2.12,2.28-.8-.46-1.66-1.56-1.71-2.43-.09-1.63,1.2-2.94,2.19-2.8,1.05.15,1.84,1.57,1.64,2.94Z"/>
        <path d="M348.49,65.57c.03-1.6.95-1.88,1.91-1.83,1.29.06,1.32,1.25,1.08,1.99-.24.74-1.06,1.82-1.64,1.82-1.29,0-1.49-1.16-1.35-1.98Z"/>
        <path d="M297.25,123.45c-1.79,4.81-2.12,10.35-3.44,15.36-.23.83-.58,1.61-1.27,2.18-2.04,1.8-4.05-.96-4.05-2.98.67-5,2.27-9.87,2.67-15.02.74-5.08,2.04-10.06,3.34-14.98.51-1.54,1.47-3.17,3.08-3.69,2.64-.58,5.57-.06,8.16-.12,1.07.06,2.5.13,3.33.88.54.5.65,1.46.66,2.27.12,5.59-3.64,8.14-7.77,10.24-1.93.99-3.05,1.6-.84,3.15,5.21,3.41,10.68,6.69,16,10.08,1.96,1.3,1.24-.84,1.31-2.07-.18-4.63-.41-9.24-.46-13.88-.01-.65.09-1.49.5-1.97.54-.79,1.93-.91,3.07-.77,1.75.19,3.56-.12,5.29,0,1.3.01,2.29,2.55.83,3.12-1.7.75-4.7-.63-5.78,1.2-.25.94-.02,2.05-.02,3.05.15,1.06-.07,2.26.42,3.23.89.81,2.76.03,3.93.07,1.22,0,3.58-.73,4.23.51-.88,6.56-8.32-1.09-7.76,6.15.11,1.74-.09,3.71.91,5.18,2.76,2.77,7.42,1.88,10.49-.09,1.12-.57,2.46.48,2.28,1.7-.6,2.42-3.32,2.75-5.38,3.1-2.96,1.03-6.04.59-8.98-.41-.71-.08-1.75.22-2.45-.14-.78-.27-.82-1.54-1.46-1.95-6.94-4.4-13.91-8.78-20.71-13.45l-.12.03ZM297.68,116.53c2-1.02,3.75-1.66,5.2-2.72,1.73-1.27,3.31-2.84,3.46-5.22.03-.46-.42-1.38-.59-1.36-1.96.18-3.92.46-5.86.81-.26.05-.52.66-.6,1.04-.54,2.35-1.02,4.72-1.61,7.45Z"/>
        <path d="M278.03,144.76c-2.51-1.11-1.29-4.42-1.17-6.53.22-5.1.47-10.42.74-15.58,0-.5-.03-1.3-.57-.89-2.43,3.75-4.06,8.2-6.62,11.91-1.14,1.1-3.3-.15-3.13-1.63.58-3.35,1.49-6.55,2.08-10.02.05-.37-.03-.44-.28-.14-2.78,3.62-4.7,8.04-7.24,11.81-.35.51-.85,1.02-1.42,1.2-3.27.57-.3-8.76-.35-10.66.62-4.07-1.6-2.55-3.68-.82-.66.53-1.33,1.05-2.12,1.28-1.36.56-2.65-.69-1.96-1.96.38-.71,1.14-1.2,1.79-1.65,2.68-1.55,5.01-3.89,7.86-5.22,1.88-.78,1.81,1.78,2,3.06.1.95.18,1.89.26,2.8.1.84.1,2.1.35,1.97,1.49-2.17,5.61-10.84,8.4-5.9.43.57.68,1.99,1.17,2.3.98-.42,1.56-1.87,2.36-2.7.89-1.1,2.07-2.68,3.64-2.06,3.77,1.52.89,20.49.62,24.65-.2,1.72-.7,4.23-2.55,4.78l-.19-.02Z"/>
        <path d="M239.89,143.23c-2.36-.49-2.34-3.04-2.45-4.98-.15-5.48,0-11.07.31-16.64.32-2.53-.18-4.81-.51-7.33-.18-1.41,1.45-1.66,2.54-1.72,3.84-.13,7.69.11,11.51-.13.7-.02,1.5-.06,2.1.28,1.22.73,1.38,3.15-.57,3.05-2.95,0-5.89-.03-8.66.46-.73.11-1.39.64-1.43,1.41-.05,2.46,0,5.03.15,7.47.07.47.38.82.85.92,2.17.26,4.44-.28,6.65.02,3.92.84.61,3.77-1.53,3.52-1.14-.06-2.72-.14-3.73-.08-.57.03-1.27.06-1.64.4-.62.79-.43,1.53-.53,2.65.27,9.04-.54,7.63,8.15,7.11,1.27.19,6.45-1.59,6.28.39-3.93,4.64-11.8,3.75-17.31,3.24l-.2-.05Z"/>
        <path d="M360.48,109.75c3.93.81,4.25,6,4.05,9.27-.24,1.49-1.76,2.89-3.08,3.17-1.44.56-3.89.55-4.63,2.06-.32,3.08-.4,6.1,1.27,8.99.8,1.42,2.29,1.16,3.28.13,1.67-.9,7.98-9.61,9.14-6.11.22.88-.63,1.68-1.08,2.27-.91,1.24-1.84,2.4-3.07,3.37-2.68,2.03-5.57,5.56-9.17,5.24-6.17-1.46-7.03-14.15-5.6-19.19,1.59-3.67,3.52-10.25,8.7-9.24l.2.03ZM356.97,120.21c.14.16.29.32.43.48,1.36-.92,3.2-1.56,3.95-2.84.82-1.4.29-3.31-1.04-4.76-2.24,1.92-2.73,4.55-3.35,7.12Z"/>
        <path d="M348.31,125.55c-2.11,5.17-5.85,9.71-10.57,12.73-3.1,1.44-2.79-3.15-2.7-5.03.26-5.13.22-10.35.16-15.54.09-1.67-.79-3.59.63-4.87.92-.93,2.01-1.27,3.09-.9,1.5.33,2.99.7,4.48,1.08,6.67,1.46,6.58,6.97,4.97,12.38l-.05.16ZM342.72,115.6c-.69-.09-3.15-1.04-3.41.54-.14,4.89.35,9.81.57,14.7.04.51.24,1.24.56,1.59.12.06.32-.18.48-.27,2.68-2.62,4.34-6.26,5.37-9.86,1.07-3.2-.46-5.74-3.44-6.67l-.13-.04Z"/>
        <path d="M286.74,12.16c0,1.75-1.66,3.86-3.08,3.92-1.26.05-2.97-1.56-3-2.83-.04-1.94,1.8-4.3,3.34-4.28,1.52.02,2.74,1.44,2.74,3.19Z"/>
      </g>
    </g>
  </g>
</svg>