<?xml version="1.0" encoding="UTF-8"?>
<svg id="Layer_2" data-name="Layer 2" xmlns="http://www.w3.org/2000/svg" viewBox="0 0 633.43 246.27">
  <defs>
    <style>
      .cls-1 {
        fill: #1e5a36;
      }

      .cls-2 {
        fill: #e9bbaf;
      }

      .cls-3 {
        fill: #ae7f74;
      }

      .cls-4 {
        fill: none;
      }

      .cls-5 {
        fill: #ae1616;
      }

      .cls-6 {
        fill: #422018;
      }
    </style>
  </defs>
  <g id="Layer_1-2" data-name="Layer 1">
    <g>
      <g>
        <g>
          <g>
            <path class="cls-5" d="M353.44,73.19c-3.06-.83-15.01-1.11-16.81-.42-.49.2-2.92.93-5.37,1.61-2.42.68-6.47,2.05-8.89,3-4.48,1.76-12.37,2.84-70.23,9.59-33.04,3.86-90.84,8.89-119.14,10.37-16.1.83-39.55,2.1-52.17,2.78-12.58.7-24.13,1.17-25.63,1.07-1.5-.12-7.35-.63-13.06-1.14-13.74-1.27-27.7-.48-32.42,1.81C3.75,104.72-.4,112.91.03,120.86c.19,3.83,2.7,10.36,5.28,13.82,6.62,8.82,21.58,15.3,35.85,15.47l3.54.05c1.91.02,3.64,1.14,4.46,2.87l3.32,7.04c.69,1.45,1.34,2.87,1.98,4.26,3.46,7.81,6.08,14.99,10.25,24.29,1.02,2.27,2.13,4.68,3.37,7.26,2.75,5.74,11.66,15.48,18.67,22.4,3.58,3.54,6.65,6.33,8.2,7.47,5.16,3.84,11.15,7.15,18.05,9.91.29.12.59.25.88.36,10.81,4.23,23.76,7.15,39.11,8.83,5.13.57,10.53,1,16.2,1.3,1.96.09,4.49.11,7.41.06,8.71-.14,20.9-.9,31.9-1.88,9.87-.9,18.76-1.98,23.31-3,21.34-4.79,36.2-11.55,48.59-22.82,5.37-4.89,10.27-10.62,15.04-17.4,1.56-2.21,3.04-4.45,4.46-6.72,3.43-5.43,6.5-11.07,9.25-16.95v-.02c1.48-3.16,2.86-6.39,4.14-9.7,1.53-3.86,3.17-10.71,4.57-17.42,1.51-7.1,2.75-14.03,3.27-17.06.42-2.39.99-3.55,1.85-3.86.69-.23,2.96-.94,5.09-1.59,5.31-1.54,15.52-6.19,20.21-9.15,9.77-6.21,17.09-14.57,19.24-21.94,3.21-11.05-2.39-20.46-14.05-23.56ZM43.65,139.81c-.54.8-10.82-.96-15.75-2.69-12.07-4.28-17.85-9.67-18.23-17.01-.17-2.96.85-5,2.89-5.71.71-.25,1.84-.65,2.5-.9,2.08-.74,4.31-.85,12.17-.57,11.1.42,10.08-.23,11.36,7.12.59,3.41,2.04,9.23,3.18,12.83,1.16,3.61,2.01,6.75,1.88,6.93ZM358.25,91.99c-1.25,4.79-8.75,11.63-18.5,16.86-2.01,1.08-4.51,2.27-6.85,3.27-3.55,1.51-7.4-1.34-6.98-5.14.11-.8.2-1.62.29-2.49.65-5.45,1.33-11.46,1.51-13.42.19-2.12,1.7-3.91,3.78-4.43l1.61-.39c5.98-1.53,15.73-1.73,19.93-.43,1.57.49,3.61,1.54,4.42,2.27,1.37,1.25,1.41,1.5.79,3.89Z"/>
            <path d="M363.09,168.26c0,.08-.02.15-.02.23v-.12s0-.08.02-.11Z"/>
          </g>
          <ellipse class="cls-5" cx="176.38" cy="44.6" rx="8.67" ry="12.09" transform="translate(125.97 219.4) rotate(-88.1)"/>
          <line class="cls-4" x1="177.82" y1="150.12" x2="174.3" y2="154.87"/>
          <line class="cls-4" x1="166.81" y1="164.94" x2="166.77" y2="164.98"/>
          <path class="cls-6" d="M363.09,168.26c0,.08-.02.15-.02.23v-.12s0-.08.02-.11Z"/>
          <path class="cls-5" d="M323.22,49.94c-.19.72-.74,1.5-1.74,2.36l-.09.06c-18.65,20.7-179.03,32.58-229.18,33.11-18.28-.02-53.65.22-57.36-7.21l.21-6.47c.08-2.39,1.83-4.39,4.2-4.79,6.05-.99,18.52-2.99,34.92-5.42.04-.02.1-.02.15-.04,41.04-9.03,102.12-15.39,122.7-17.04,27.09-2.16,48.81-3.48,69.79-3.41h.02c20.92-1.24,37.69-2.06,45.66-2.59,3.55-.24,6.87,1.77,8.35,5,.7,1.56,1.25,3.04,1.65,4.2.67.67.93,1.41.72,2.25Z"/>
        </g>
        <path class="cls-6" d="M287.15,179.47l12.72,14.96c-1.42,2.27-2.9,4.51-4.46,6.72-4.77,6.78-9.66,12.5-15.04,17.4l-17.65-27.74c-1.64-.02-3.1-.26-4.26-.79-6.79-3.09-22.51-28.76-22.51-28.76,0,0-18.45-25-15.19-28.67,3.24-3.67,23.56,19.47,23.56,19.47-7.09-13.34-15.75-31.05-13.83-33.41,1.93-2.38,4.49-1.82,9.02,4.8,4.51,6.64,14.68,21.83,14.68,21.83,0,0-5.76-23.9-7.69-32.64-1.93-8.72,4.17-11.29,7.19-5.4,2.95,5.7,11.83,32.79,12.4,34.54-.4-1.95-7.47-36-2.67-37.19,4.92-1.23,11.8,15.5,18.85,40.11.83,2.92,1.56,5.59,2.16,8.03,1.14.03,1.87.22,1.87.22,0,0,2.62-5.03,3.3-10.81.8-6.87,6.95-12.1,10.21-6.95,3.01,4.79.22,29.89-12.66,44.3Z"/>
        <path class="cls-3" d="M200.85,222.28l7.63,22.08c-10.99.99-23.19,1.74-31.9,1.88l-4.35-22.22c-1.62-.65-2.96-1.45-3.92-2.44-5.54-5.68-11.16-37.25-11.16-37.25,0,0-8.61-31.97-3.95-34.37,4.65-2.38,15.81,28.47,15.81,28.47-1.85-15.98-3.57-36.91-.74-38.52,2.83-1.61,5.16-.06,7.07,8.28.26,1.17.57,2.55.91,4.06,2.08,9.23,5.19,23.28,5.19,23.28,0,0,3.57-25.94,5.03-35.36,1.48-9.4,8.52-9.59,9.25-2.56.71,6.9-1.07,38.07-1.11,39.15.19-1.14,6.5-38.71,11.8-38.03,5.37.7,5.68,19.96,3.13,47.14-.31,3.21-.63,6.13-.97,8.78,1.11.48,1.76.94,1.76.94,0,0,4.55-3.97,7.47-9.43,3.46-6.52,11.59-9.33,12.81-2.93,1.14,5.91-11.38,29.74-29.75,39.05Z"/>
        <path class="cls-2" d="M137.5,164.85s-6.76,29.33-12.21,34.41c-.94.86-2.24,1.56-3.78,2.1l-8.52,34.34c-6.9-2.76-12.89-6.07-18.05-9.91-1.54-1.14-4.62-3.94-8.2-7.47l8-19.93c-16.78-9.57-27.4-32.5-26.06-38,1.45-5.91,8.94-2.92,11.89,3.35,2.47,5.26,6.56,9.2,6.56,9.2,0,0,.62-.4,1.68-.8-.19-2.5-.36-5.26-.48-8.29-1.13-25.58.06-43.63,5.14-44.03,4.99-.39,9.14,35.12,9.28,36.19-.02-1-.22-30.31.77-36.74,1-6.56,7.6-6.05,8.55,2.84.94,8.89,3.07,33.38,3.07,33.38,0,0,4.82-17.63,6.99-25.37,2.18-7.72,4.43-9.05,7.01-7.41s-.02,21.18-2.5,36.08c0,0,11.9-28.41,16.16-25.95,4.25,2.45-5.31,32.02-5.31,32.02Z"/>
      </g>
      <g>
        <g>
          <path d="M556.44,137.28c-1.7,6.74-2.54,14.29-4.75,20.83-.21,3.12-3.08,5.11-5.75,2.93-.85-.77-1.78-1.91-2.43-2.8-1.1-7.44.43-15.73-.84-23.16-1.79-1.35-4.48-.79-6.56-1.49-2.27-.27-4.81-1.54-7.04-.64-.82.38-1.44,1.51-1.78,2.37-2.4,5.96-5.37,11.67-7.7,17.56-.71,1.77-.95,4.1-2.54,5.33-3.35,2.35-8.18.77-11.87.04-17.35-4.31-17.76-27.11-3.12-35.46,2.01-1.44,4.55-1.33,7.08-1.6.97-.15,1.99-.11,2.35-.75.19-9.74,0-19.65-.66-29.38-.14-.96.38-2.56,1.34-2.63.97.26,2.48-.56,3.25.26.74.97.74,2.37,1,3.54,1.61,16.07,1.43,32.36,1.49,48.44.34,4.17,2.61-1.52,3.26-2.64,6.65-15.64,13.1-31.87,20.82-47.11,1.37-1.04,5.18-1.62,6.81-1.01,1,.3,1.34,1.89,1.3,2.94-.21,13.02-.33,26.3-.33,39.47,0,1-.18,13.3,1.5,10.05,4.05-13.71,7.27-27.68,10.13-41.82.26-1.29.71-2.83,1.76-3.63,2.35-1.31,5.45-.78,8.02-.61,13.61,4.06,3.46,22.41-3.2,28.81-1.89,2.1-3.56,4.44-5.17,6.74-.39.73-.26,1.53.41,2.09,7.57,6.3,15.16,12.35,23.41,17.5.87.37.72-.32.76-1.23.42-7.57.22-15.33.82-22.8.23-2.59,3.73-5.6,5.98-3.46.79.82.93,2.41.84,3.56-.92,10.82-.76,21.78-1.72,32.42-.48,1.8-2.47,4.52-4.58,2.98-1.08-.75-1.72-2.19-2.64-2.91-9.71-7.72-20.52-14.36-29.52-22.78l-.15.04ZM507.18,152.11c5.52.91,5.66-2.9,5.04-7.24-.76-5.42-.04-10.91-.36-16.31-.03-1.37-1.71-2.93-2.87-3.21-9.92.46-15.09,10.85-10.46,20.1,1.54,3.45,4.49,6.53,8.35,6.63l.29.03ZM542.18,100.82c-.18-.06-.61-.03-.73.31-2.25,5.86-4.91,12.28-7.39,18.26-.76,1.79-1.53,3.57-2.33,5.33-.49,1.03-1.04,2.65.39,3.03,2.92.71,6.45.94,9.5,1.29.38-.03.64-.15.81-.42.59-9.05-.01-18.52-.14-27.68l-.11-.14ZM559.51,125.83c4.8-5.05,10.02-9.88,11.96-16.98.75-2.75-.36-4.65-3.25-5.42-2.11-.56-3.26.34-4.01,3.3-1.59,6.36-3.14,12.73-4.7,19.1Z"/>
          <path d="M590.03,163.88c-.54,0-1.07-.18-1.57-.55-.64-.45-1.12-1.08-1.58-1.7-.36-.48-.7-.93-1.07-1.23-3.66-2.91-7.55-5.72-11.31-8.43-6.02-4.35-12.23-8.83-17.73-13.9-.59,2.45-1.09,5.03-1.57,7.53-.82,4.24-1.66,8.63-3,12.61-.14,1.83-1.12,3.34-2.55,3.96-1.28.56-2.75.29-4.01-.75-1.07-.97-2.12-2.34-2.52-2.89l-.07-.1-.02-.12c-.54-3.64-.45-7.53-.37-11.28.08-3.9.17-7.93-.44-11.66-.94-.63-2.17-.73-3.46-.84-.92-.08-1.88-.16-2.75-.44-.72-.09-1.47-.27-2.19-.45-1.56-.38-3.17-.78-4.55-.22-.51.24-1.08,1.03-1.5,2.09-1.17,2.9-2.49,5.78-3.76,8.56-1.35,2.94-2.74,5.98-3.93,9-.19.47-.34.97-.5,1.51-.45,1.5-.92,3.04-2.2,4.04-3.07,2.15-7.09,1.27-10.63.49-.56-.12-1.11-.25-1.64-.35-7.6-1.89-12.75-7.55-13.8-15.14-1.17-8.45,3.06-16.98,10.53-21.24,1.68-1.21,3.77-1.37,5.79-1.53.49-.04.99-.08,1.48-.13.18-.03.39-.05.6-.08.56-.06,1.09-.12,1.31-.34.19-10.12-.03-19.94-.66-29.19-.12-.81.17-1.89.68-2.53.31-.39.7-.61,1.12-.63h.08s.08.02.08.02c.29.08.71.01,1.12-.04.77-.11,1.72-.24,2.36.44.65.85.81,1.85.96,2.82.05.32.1.65.17.95,1.43,14.21,1.46,28.7,1.48,42.72,0,1.94,0,3.89.01,5.83.04.53.12.8.17.94.47-.42,1.33-2.16,1.66-2.85.2-.42.38-.77.5-.97,1.38-3.25,2.77-6.58,4.18-9.92,5.18-12.35,10.54-25.13,16.63-37.16l.05-.1.09-.07c1.51-1.15,5.53-1.74,7.28-1.08,1.37.4,1.67,2.42,1.63,3.42-.21,13.36-.32,26.63-.33,39.45v.39c-.03,6.63.31,8.78.53,9.47,0-.01.02-.03.02-.04,3.56-12.08,6.78-25.36,10.09-41.69.27-1.35.75-3.02,1.95-3.93,2.19-1.23,4.85-1,7.19-.8.4.03.78.07,1.16.09l.11.02c3.72,1.11,6,3.32,6.79,6.57,1.75,7.24-4.56,18.05-9.79,23.07-1.8,2-3.38,4.2-5.11,6.67-.25.49-.15,1.02.32,1.42,7.19,5.98,14.99,12.23,23.32,17.44,0-.12.01-.28.01-.41,0-.13,0-.26,0-.41.18-3.3.25-6.69.31-9.96.08-4.24.17-8.63.51-12.86.16-1.8,1.68-3.73,3.45-4.4,1.26-.47,2.45-.25,3.37.63,1.09,1.12,1.06,3.15.99,3.97-.45,5.3-.65,10.73-.84,15.97-.19,5.42-.4,11.03-.88,16.46-.4,1.52-1.53,3.23-2.95,3.74-.28.1-.56.15-.84.15ZM556.73,136.68l.21.19c5.57,5.22,11.96,9.83,18.14,14.29,3.77,2.72,7.67,5.53,11.34,8.46.47.37.87.9,1.25,1.41.42.55.85,1.13,1.36,1.49.5.36.99.45,1.5.27,1.05-.37,2-1.8,2.31-2.97.47-5.32.67-10.91.87-16.32.19-5.26.38-10.69.84-16.01.08-1.09-.06-2.51-.7-3.17-.79-.75-1.7-.63-2.32-.4-1.4.53-2.69,2.15-2.81,3.55-.34,4.19-.43,8.56-.51,12.79-.06,3.28-.13,6.68-.32,9.99,0,.12,0,.25,0,.37,0,.54-.01,1.05-.41,1.31-.39.26-.87.05-1.03-.01-8.47-5.28-16.31-11.56-23.53-17.58-.83-.7-1.03-1.76-.53-2.7,1.78-2.55,3.38-4.78,5.24-6.84,4.95-4.76,11.18-15.36,9.53-22.14-.69-2.87-2.73-4.83-6.05-5.83-.37-.03-.74-.06-1.12-.09-2.2-.19-4.69-.4-6.56.64-.89.68-1.3,2.21-1.52,3.29-3.32,16.36-6.54,29.66-10.15,41.86-.16.32-.53,1.04-1.16.88-.54-.13-1.37-.33-1.32-10.69v-.39c0-12.83.11-26.11.33-39.48.04-1.04-.31-2.26-.94-2.45-1.46-.55-4.94-.05-6.27.86-6.06,11.97-11.39,24.69-16.55,36.99-1.4,3.34-2.8,6.68-4.21,9.98-.14.25-.3.58-.49.96-1.08,2.21-1.85,3.65-2.78,3.47-.71-.13-.88-1.06-.95-1.95,0-1.98-.01-3.92-.02-5.87-.03-13.99-.05-28.45-1.47-42.56-.06-.27-.12-.61-.17-.96-.14-.88-.27-1.72-.73-2.33-.23-.24-.73-.2-1.46-.1-.48.07-.97.14-1.42.04-.12.03-.24.11-.35.26-.34.42-.55,1.22-.47,1.79.64,9.36.86,19.26.66,29.47v.13s-.06.11-.06.11c-.41.73-1.29.83-2.13.93-.19.02-.39.04-.58.07-.53.06-1.03.1-1.53.14-1.97.16-3.84.31-5.33,1.38-7.16,4.09-11.19,12.22-10.08,20.27.99,7.17,5.86,12.52,13.03,14.3.51.1,1.06.22,1.64.35,3.34.74,7.13,1.57,9.82-.32,1.01-.78,1.43-2.18,1.84-3.52.16-.53.33-1.08.53-1.59,1.2-3.05,2.6-6.1,3.96-9.05,1.27-2.77,2.58-5.64,3.74-8.51.3-.77.98-2.14,2.03-2.64,1.71-.69,3.48-.26,5.19.16.74.18,1.44.35,2.12.43l.1.02c.77.26,1.64.33,2.56.41,1.45.12,2.95.25,4.14,1.15l.16.12.03.2c.66,3.88.57,8.04.49,12.05-.08,3.67-.16,7.47.34,10.99.43.58,1.36,1.79,2.29,2.63.96.78,2.02,1,2.96.59,1.09-.47,1.86-1.72,1.95-3.18l.03-.13c1.33-3.93,2.17-8.31,2.99-12.54.53-2.75,1.08-5.59,1.75-8.26l.07-.28.7-.2ZM508.7,152.75c-.48,0-1.01-.05-1.58-.14l-.27-.02c-3.59-.1-6.87-2.69-8.76-6.93-2.39-4.78-2.34-10.19.15-14.44,2.24-3.83,6.16-6.15,10.74-6.36h.07s.07.01.07.01c1.28.31,3.22,1.99,3.25,3.68.13,2.24.09,4.54.04,6.77-.06,3.12-.13,6.35.31,9.49.39,2.7.54,5.41-.98,6.89-.72.7-1.72,1.05-3.04,1.05ZM508.95,125.85c-4.2.22-7.79,2.35-9.85,5.87-2.32,3.96-2.36,9.01-.11,13.5,1.74,3.9,4.7,6.27,7.92,6.36l.36.03c1.81.3,3.04.09,3.78-.64,1.2-1.17,1.02-3.71.68-6.04-.45-3.22-.38-6.49-.32-9.65.04-2.21.09-4.49-.04-6.71-.02-1.06-1.41-2.45-2.42-2.73ZM541.66,129.55c-.84-.09-1.62-.17-2.42-.25-2.46-.25-5.01-.51-7.24-1.06-.68-.18-.99-.58-1.13-.89-.31-.68-.18-1.61.41-2.85.74-1.64,1.5-3.38,2.32-5.31,2.39-5.76,5.1-12.29,7.38-18.24.22-.61.94-.75,1.36-.61l.14.05.3.38v.17c.04,2.59.11,5.2.19,7.82.19,6.58.38,13.39-.04,19.9v.13s-.07.11-.07.11c-.25.39-.65.61-1.2.65ZM541.8,101.61c-2.26,5.88-4.92,12.3-7.28,17.97-.82,1.95-1.59,3.7-2.34,5.35-.59,1.24-.51,1.79-.41,2,.05.1.15.25.47.34,2.15.53,4.66.78,7.09,1.03.8.08,1.58.16,2.34.25.13-.01.21-.06.26-.1.41-6.42.22-13.15.03-19.66-.07-2.41-.14-4.8-.18-7.18ZM558.58,127.54l1.8-7.33c1.11-4.53,2.22-9.07,3.36-13.6.46-1.84,1.09-2.95,1.99-3.47.7-.41,1.56-.48,2.63-.19,1.59.42,2.71,1.18,3.32,2.25.59,1.03.69,2.31.28,3.79-1.78,6.49-6.26,11.14-10.59,15.64-.5.52-1,1.03-1.49,1.55l-1.3,1.36ZM567.14,103.78c-.35,0-.65.08-.91.23-.65.38-1.14,1.29-1.53,2.86-1.13,4.53-2.24,9.06-3.35,13.59l-.9,3.69c.07-.07.13-.14.2-.21,4.25-4.41,8.64-8.96,10.35-15.21.33-1.22.27-2.24-.18-3.03-.47-.83-1.39-1.43-2.71-1.78-.36-.1-.67-.14-.95-.14Z"/>
        </g>
        <path d="M548.61,49.38c1.75-2.1,3.51-4.19,5.25-6.3,3.39-4.1,8-5.62,13.05-5.69,1.45-.02,3.33,1.07,4.28,2.25,1.91,2.36,3.32,5.14,5.03,7.89,2.17-3.56,4.5-7.46,6.91-11.32,4.6-7.38,9.36-14.66,13.78-22.14,1.27-2.15,1.4-4.94,2.41-7.28.69-1.61,1.68-3.51,3.08-4.28,2.44-1.35,4.67.48,5.28,3.3,1.55,7.23,2.95,14.52,5.05,21.59,2.04,6.86,4.45,7.72,11.58,6.1,1.43-.33,3.25.16,4.59.84.44.23.28,2.45-.21,3.47-.84,1.75-2.19,3.21-4.55,2.48-.48-.15-.95-.37-1.44-.43-5.13-.68-6.07.62-4.6,5.55,2.46,8.26,4.9,16.54,6.81,24.93.34,1.5-1.49,4.43-3.04,5.16-1.66.78-4.62.88-5.42-2.43-1.23-5.11-2.6-10.18-4.05-15.23-1.56-5.44-3.21-10.86-4.98-16.24-.17-.53-1.43-1.01-2.18-1.01-5.41.04-10.83.06-16.22.45-1.41.1-3.31,1.14-3.99,2.32-3.17,5.53-5.93,11.29-8.97,16.9-.98,1.82-2.27,3.5-3.62,5.07-.46.52-1.92.93-2.31.62-1.09-.88-2.44-2.07-2.6-3.29-.22-1.68.68-3.47.88-5.24.34-2.96.93-5.98.64-8.9-.41-4.13-3.87-5.94-7.45-3.83-2.5,1.48-4.85,3.63-6.52,6.01-2.55,3.63-4.52,7.68-6.63,11.61-1.41,2.62-2.46,5.46-5.75,6.42-2.25.65-4.14-.53-4.02-2.87.44-8.8,1.19-17.58,1.43-26.38.19-6.79-.08-13.61-.41-20.4-.26-5.35-.11-10.61,1.67-15.7.73-2.1,2-3.92,4.62-3.2,2.37.65,3.95,1.48,3.6,4.97-.84,8.34-.78,16.77-1.08,25.17-.19,5.2-.37,10.39-.56,15.59-.04,1.06-.07,2.11-.11,3.17.25.11.5.22.74.32ZM600.77,17.99c-3.15,5.03-5.78,9.31-8.51,13.53-1.61,2.49-.09,3.12,1.88,3.1,3.17-.04,6.34-.31,9.48-.72.59-.08,1.6-1.45,1.45-1.96-1.21-4.38-2.65-8.69-4.31-13.95Z"/>
        <path d="M502.02,26.66c-.24,8.59-.41,17.19-.74,25.78-.26,6.78-.59,13.56-1.18,20.32-.13,1.55-1.28,3.1-2.26,4.43-.39.53-1.88.88-2.4.56-2.06-1.29-4.04-2.77-5.83-4.41-.61-.56-.98-1.86-.82-2.7,2.73-14.46,1.65-29.18,3.13-43.73.51-5.05.34-10.17.48-15.26.09-3.36,3.45-6.01,6.65-5.32.84.18,1.84-.2,2.61.09,1.02.38,2.67,1.13,2.7,1.79.33,6.35,4.46,10.94,7.17,16.18,3.9,7.53,7.86,15.03,11.79,22.54.18.34.36.69.68,1.3.56-4.65,1.11-9,1.59-13.36,1.01-9.26,1.94-18.52,3-27.77.17-1.45.52-3.12,1.42-4.15.69-.79,2.59-1.3,3.52-.91.91.39,1.91,2.17,1.77,3.17-.9,6.15-2.45,12.21-3.14,18.37-.92,8.15-1.41,16.36-1.79,24.56-.28,6.09.15,12.22-.24,18.3-.13,1.95-1.52,4.21-3.01,5.59-1.6,1.47-3.13.05-3.88-1.72-4.93-11.58-9.73-23.21-14.82-34.72-1.44-3.25-3.68-6.14-5.56-9.2l-.81.27Z"/>
        <g>
          <path d="M600.06,158.57c-.19.94-.12,2.08-.65,2.75-.64.81-2.15,1.9-2.64,1.65-.99-.52-2.32-2.01-2.17-2.85,1.01-5.44,2.35-10.83,3.64-16.21,1.64-6.85,3.32-13.7,5.03-20.54,1.79-7.18,3.67-14.35,5.45-21.53.48-1.94.74-3.93,1.1-5.9.43-2.35,4.8-5.03,6.92-4.09.63.28,1.21,1.25,1.35,1.99,1.77,9.76,3.57,19.51,5.14,29.3,2.49,15.47,4.79,30.97,7.22,46.45.78,4.97,1.96,9.89,2.46,14.88.18,1.78-.98,3.79-1.86,5.52-.24.47-1.94.73-2.56.37-3.27-1.9-5.28-4.68-5.59-8.64-.53-6.74-1.18-13.48-1.89-20.21-.69-6.51-1.59-12.99-2.25-19.5-.24-2.32-1.09-3.32-3.49-2.84-3.42.67-6.9,1.06-10.26,1.91-.87.22-1.84,1.6-2.07,2.6-1.11,4.93-1.99,9.9-2.96,14.86.03,0,.05.01.08.02ZM613.17,106.17c-.35,0-.69.01-1.04.02-1.74,6.82-3.53,13.63-5.18,20.47-.51,2.09-.62,4.28-.95,6.42-.19,1.28.09,2,1.6,1.86,2.59-.24,5.19-.51,7.79-.51,1.81,0,1.99-.75,1.77-2.24-.77-5.17-1.41-10.37-2.19-15.54-.53-3.51-1.2-6.99-1.81-10.49Z"/>
          <path d="M629.34,191.03c-.4,0-.8-.06-1.1-.23-3.56-2.07-5.53-5.11-5.84-9.03-.5-6.27-1.11-12.87-1.89-20.19-.32-3.06-.7-6.17-1.07-9.17-.41-3.38-.83-6.88-1.19-10.33-.12-1.17-.39-1.87-.85-2.21-.43-.32-1.1-.38-2.05-.19-1.29.25-2.59.47-3.89.68-2.1.35-4.27.7-6.35,1.23-.61.15-1.5,1.32-1.7,2.23-.82,3.63-1.53,7.35-2.21,10.94-.22,1.14-.43,2.28-.65,3.42h0s-.02.51-.02.51c-.06.27-.09.56-.12.86-.08.75-.17,1.53-.63,2.11-.55.7-2.34,2.26-3.26,1.78-1.11-.58-2.64-2.22-2.43-3.38.89-4.8,2.05-9.62,3.18-14.28l.47-1.96c1.6-6.67,3.29-13.59,5.03-20.54.82-3.27,1.65-6.54,2.48-9.8,1-3.91,1.99-7.81,2.96-11.73.32-1.3.55-2.65.77-3.96.11-.64.21-1.27.33-1.91.31-1.65,2.08-3.12,3.51-3.87,1.58-.83,3.08-1.04,4.11-.58.82.37,1.48,1.49,1.63,2.36l.53,2.92c1.57,8.64,3.2,17.57,4.61,26.39,1.47,9.13,2.9,18.43,4.28,27.42.97,6.34,1.95,12.69,2.94,19.02.29,1.83.64,3.69.97,5.48.58,3.08,1.17,6.26,1.49,9.42.17,1.75-.79,3.62-1.65,5.27l-.27.53c-.14.28-.47.5-.96.64-.3.09-.75.17-1.19.17ZM616.32,138.56c.69,0,1.25.16,1.69.49.7.52,1.1,1.45,1.25,2.92.35,3.44.77,6.93,1.18,10.31.37,3.01.74,6.12,1.07,9.19.78,7.33,1.4,13.95,1.89,20.22.29,3.62,2.03,6.32,5.34,8.24.4.23,1.67.02,1.88-.19l.25-.5c.79-1.53,1.68-3.26,1.54-4.71-.31-3.12-.9-6.28-1.48-9.34-.34-1.8-.69-3.67-.98-5.51-1-6.34-1.97-12.68-2.94-19.03-1.38-8.99-2.81-18.29-4.28-27.42-1.42-8.81-3.04-17.73-4.61-26.37l-.53-2.92c-.12-.64-.63-1.43-1.06-1.62-.73-.32-1.96-.11-3.23.55-1.57.82-2.8,2.13-2.99,3.16-.12.63-.22,1.26-.33,1.89-.22,1.33-.45,2.7-.78,4.04-.97,3.92-1.97,7.83-2.96,11.74-.83,3.26-1.67,6.53-2.48,9.8-1.74,6.95-3.43,13.86-5.03,20.53l-.47,1.96c-1.12,4.65-2.28,9.46-3.16,14.23-.09.47.92,1.8,1.91,2.31h0c.25,0,1.41-.75,2.01-1.51.28-.35.35-.96.42-1.6.02-.15.03-.3.05-.45l-.09-.02.09-.49c.25-1.3.5-2.6.75-3.9.68-3.61,1.39-7.34,2.21-10.98.24-1.05,1.28-2.69,2.43-2.98,2.12-.53,4.31-.89,6.43-1.24,1.29-.21,2.58-.42,3.86-.68.42-.08.79-.12,1.14-.12ZM607.27,135.46c-.63,0-1.08-.16-1.39-.49-.51-.54-.45-1.38-.36-1.96.11-.74.2-1.49.29-2.24.16-1.39.33-2.84.67-4.23,1.2-4.95,2.48-9.96,3.73-14.81.49-1.89.97-3.78,1.45-5.67l.09-.37,1.85-.03.07.42c.19,1.08.38,2.16.58,3.23.43,2.38.87,4.83,1.24,7.26.41,2.71.78,5.42,1.15,8.13.34,2.47.67,4.94,1.04,7.41.14.93.14,1.66-.32,2.18-.38.43-.98.66-1.95.63-2.25,0-4.61.21-6.87.42l-.87.08c-.14.01-.27.02-.39.02ZM612.53,106.68c-.45,1.77-.9,3.54-1.36,5.3-1.25,4.84-2.53,9.85-3.73,14.8-.32,1.33-.49,2.74-.65,4.11-.09.76-.18,1.52-.29,2.27-.09.58-.06.96.1,1.12.14.15.48.21.96.16l.87-.08c2.28-.21,4.65-.42,6.96-.43.6,0,1.02-.1,1.19-.29.17-.2.2-.62.08-1.38-.37-2.47-.7-4.95-1.04-7.42-.37-2.71-.74-5.42-1.15-8.12-.36-2.42-.8-4.87-1.23-7.23-.17-.94-.34-1.88-.5-2.82h-.23Z"/>
        </g>
        <path d="M454.9,15.38c-4.33.76-7.69,1.27-11.02,1.95-2.37.48-4.01-.66-4.18-2.67-.08-1.01,1.6-2.8,2.81-3.15,2.76-.81,5.73-.88,8.59-1.39,2.55-.46,5.14-.89,7.59-1.7,4.58-1.52,7.29.08,6.27,4.59-2.01,8.87-4.69,17.59-7.07,26.37-.8,2.97-1.36,6.01-2.32,8.92-1.83,5.61-3.9,11.15-5.8,16.74-.67,1.97-1.14,4.01-1.88,6.66,5-.74,9.6-1.52,14.23-2.09,3.16-.39,6.36-.47,9.54-.73,2.18-.18,3.47-1.09,3.47-3.59,0-6.4.2-12.8.29-19.21.04-2.87,2.14-4.85,4.98-4.65,3.71.27,5.17,2,4.89,5.28-.6,7.16-.94,14.34-1.61,21.49-.19,2.04-.94,4.08-1.77,5.98-.67,1.52-1.86,1.96-3.87,1.81-4.72-.35-9.51-.19-14.23.2-6.29.52-12.55,1.43-18.81,2.24-1.04.14-2.02.73-3.06.94-1.05.21-2.54.67-3.14.18-.9-.75-1.87-2.4-1.63-3.37,1.19-4.81,2.88-9.49,4.17-14.28,2.56-9.5,4.82-19.08,7.5-28.55,1.68-5.92,3.91-11.69,6.05-17.97Z"/>
        <g>
          <path d="M430.17,150.09c-1.62,12.78-13.69,32.1-27.85,20.99-2.63-1.97-5.87-5.85-4.45-9.07.62-1.49,2.47-1.02,3.28-.25,2.29,1.97,4.16,4.84,6.99,5.88,3.89,1.33,7.19-1.67,10.15-4.47,4.04-4.24,5.24-9.86,4.36-15.3-1.06-7.26-4.7-9.92-11.78-9.72-7.09-.59-18.54-3.21-16.33-12.32,2.01-10.7,10.97-19.36,21.2-22.06,3.61-.23,2.88,2.27-.42,4.32-4.93,3.29-10.33,6.95-12.81,12.53-5.53,16.62,28.6.21,27.7,29.08l-.05.4Z"/>
          <path d="M410.83,174.91c-2.95,0-5.9-1.15-8.82-3.44-2.47-1.85-6.23-5.97-4.6-9.66.27-.66.78-1.08,1.45-1.22,1-.21,2.07.27,2.64.81.74.63,1.45,1.38,2.14,2.1,1.41,1.48,2.87,3,4.68,3.67,3.7,1.27,6.99-1.86,9.63-4.37,3.64-3.82,5.14-9.1,4.21-14.86-.99-6.81-4.27-9.49-11.28-9.3-4.5-.37-12.45-1.66-15.7-6.18-1.37-1.91-1.75-4.18-1.13-6.76,1.98-10.53,10.65-19.55,21.56-22.43,2.12-.15,2.77.54,2.96,1.14.37,1.15-.78,2.72-2.99,4.09-4.76,3.18-10.16,6.79-12.61,12.31-.74,2.23-.76,3.93-.03,5.16,1.28,2.16,4.83,2.81,8.94,3.56,8.17,1.49,19.35,3.52,18.83,20.18l-.05.45c-1.16,9.11-7.16,20.51-15.19,23.8-1.54.63-3.1.95-4.65.95ZM399.34,161.53c-.1,0-.19,0-.28.03-.34.07-.58.28-.73.64-1.39,3.14,2.2,6.91,4.28,8.47,4.15,3.26,8.35,4.05,12.48,2.36,7.6-3.12,13.48-14.37,14.58-23l.05-.4c.49-15.75-9.77-17.62-18.01-19.12-4.35-.79-8.11-1.48-9.63-4.03-.88-1.49-.89-3.46-.04-6.03,2.59-5.82,8.12-9.52,13-12.79,2.03-1.26,2.73-2.48,2.58-2.95-.09-.27-.62-.54-1.85-.46-10.45,2.76-18.83,11.47-20.74,21.65-.56,2.31-.24,4.31.96,5.96,3.13,4.34,11.48,5.48,14.92,5.76,7.48-.21,11.17,2.82,12.24,10.15.99,6.07-.61,11.65-4.49,15.72-2.86,2.71-6.39,6.07-10.67,4.6-2.04-.75-3.58-2.36-5.07-3.92-.67-.71-1.37-1.44-2.09-2.05-.35-.33-.95-.6-1.48-.6Z"/>
        </g>
        <g>
          <path d="M468.57,108.6c-.51,12.14-2.47,24.66-2.72,36.81-.03,1.6-.15,3.81,1.21,4.85,1.29,1.01,3.7.53,5.52.32,2.26-.41,4.7-.02,6.94-.73,1.25-.51,1.53-1.9,1.62-3.14.42-6.42.48-12.9.85-19.3.96-5.08,5.25-7.46,7.65-1.56.62,7.54-.71,15.33-1.13,22.87.7,5.93-2.98,10.37-9.14,9.15-4.65.18-9.32.16-13.96-.04-1.61-.06-3.33-.45-4.39-1.74-2.05-2.7-.83-6.52-.96-9.68.52-14.27,3.51-28.61,2.17-43.04-.15-1.9-.44-3.89.23-5.71.84-2.5,4.39-4.75,6.09-1.97,1.04,1.83.49,4.15.57,6.3-.13,2.11.03,4.39-.5,6.35l-.06.26Z"/>
          <path d="M481.35,158.57c-.65,0-1.32-.07-2-.2-4.57.17-9.26.16-13.94-.05-2.18-.08-3.78-.73-4.75-1.92-1.58-2.08-1.38-4.66-1.18-7.16.08-.99.15-1.93.11-2.82.19-5.22.71-10.5,1.22-15.61.89-8.97,1.81-18.25.95-27.41l-.06-.65c-.15-1.75-.31-3.55.31-5.27.61-1.8,2.41-3.37,4.1-3.56,1.19-.13,2.21.4,2.88,1.5.83,1.45.75,3.11.68,4.72-.03.61-.06,1.23-.03,1.82-.04.67-.05,1.3-.06,1.93-.03,1.54-.06,3.13-.45,4.57l-.04.2c-.23,5.57-.78,11.31-1.31,16.86-.62,6.56-1.27,13.34-1.41,19.9v.22c-.04,1.51-.08,3.38,1.01,4.22.96.76,2.88.51,4.42.31.25-.03.5-.06.74-.09.95-.17,1.97-.21,2.96-.24,1.37-.04,2.66-.08,3.89-.48.76-.31,1.16-1.12,1.28-2.7.23-3.47.35-7.03.47-10.46.1-2.9.21-5.89.37-8.83.58-3.11,2.3-5.28,4.28-5.48,1.01-.1,2.91.25,4.34,3.76l.04.15c.43,5.19-.07,10.55-.55,15.74-.22,2.37-.45,4.83-.58,7.21.39,3.18-.52,6.1-2.47,7.91-1.36,1.26-3.16,1.91-5.2,1.91ZM479.43,157.37h.06c2.59.53,4.8.02,6.39-1.44,1.72-1.59,2.51-4.2,2.16-7.14.13-2.48.36-4.95.58-7.33.47-5.11.96-10.4.55-15.48-.87-2.11-2.05-3.2-3.28-3.07-1.51.15-2.91,2.05-3.39,4.61-.16,2.86-.26,5.85-.37,8.74-.12,3.44-.25,7.01-.48,10.5-.09,1.24-.4,2.94-1.94,3.57-1.4.45-2.83.49-4.2.54-.99.03-1.93.06-2.84.23-.26.03-.51.06-.76.1-1.82.24-3.88.5-5.17-.51-1.49-1.14-1.44-3.39-1.4-5.04v-.22c.14-6.59.79-13.39,1.42-19.97.53-5.55,1.08-11.29,1.31-16.85l.07-.35c.36-1.34.39-2.87.42-4.35.01-.65.03-1.29.06-1.92-.02-.58,0-1.23.03-1.86.07-1.53.14-2.98-.54-4.16-.46-.76-1.11-1.1-1.91-1.02-1.32.15-2.78,1.44-3.27,2.89-.55,1.52-.4,3.21-.26,4.85l.06.65c.86,9.24-.06,18.57-.95,27.59-.5,5.09-1.02,10.35-1.21,15.51.04.91-.04,1.92-.12,2.9-.18,2.31-.37,4.7.97,6.46.78.95,2.13,1.48,4.01,1.54,4.68.2,9.36.22,13.92.04h.06Z"/>
        </g>
        <g>
          <path d="M457.45,128.93c-.94,8.74-3.02,19.05-8.09,26.27-3.51,4.64-10.44,5.11-14.19.43-6.41-9.41-3.99-25.37-1.62-36.08,1.64-8.41,9.98-17.29,18.57-11.35,6.01,4.52,5.74,13.33,5.37,20.31l-.03.43ZM449.51,135.46c.64-5.97.67-12.44-1.02-18.28-2.94-9.48-9.07-5.35-10.87,3.18-1.9,8.07-2.12,16.53-1.44,24.68.07,5.15,4.48,11.93,9.18,5.94,2.83-4.14,3.35-10.14,4.1-15.07l.05-.44Z"/>
          <path d="M441.98,159.42c-2.81,0-5.42-1.26-7.2-3.48-4.98-7.3-5.53-19.23-1.72-36.51,1.12-5.76,5.08-11.08,9.62-12.93,3.24-1.32,6.6-.88,9.72,1.27,6.43,4.84,5.92,14.41,5.58,20.74l-.04.46c-1.25,11.63-4,20.55-8.18,26.51-1.86,2.46-4.65,3.89-7.66,3.93-.04,0-.09,0-.13,0ZM446.37,106.77c-1.11,0-2.22.22-3.32.67-4.24,1.73-7.95,6.75-9.02,12.2-3.75,17-3.25,28.68,1.54,35.71,1.58,1.98,3.93,3.11,6.51,3.07,2.7-.04,5.2-1.32,6.87-3.52,4.07-5.8,6.77-14.56,8-26.02l.03-.42c.33-6.11.82-15.36-5.17-19.87-1.76-1.21-3.6-1.82-5.44-1.82ZM441.6,153.82c-.43,0-.82-.08-1.17-.19-2.87-.97-4.7-5.21-4.75-8.59-.76-9.1-.27-17.46,1.46-24.8,1.09-5.16,3.79-8.86,6.58-8.99,1.27-.06,3.65.61,5.25,5.78,1.48,5.12,1.82,11.16,1.04,18.48h0s-.05.45-.05.45c-.1.67-.2,1.34-.29,2.02-.64,4.5-1.37,9.59-3.89,13.28-1.56,1.99-3.01,2.56-4.18,2.56ZM443.87,112.25s-.07,0-.11,0c-2.29.11-4.67,3.56-5.65,8.21-1.7,7.25-2.19,15.5-1.44,24.54.04,3.02,1.73,6.9,4.07,7.69,1.39.47,2.8-.21,4.22-2.01,2.37-3.47,3.08-8.44,3.71-12.83.1-.68.19-1.36.29-2.01l.05-.42c.77-7.19.44-13.1-1-18.09-1.02-3.28-2.48-5.07-4.14-5.07Z"/>
        </g>
        <path d="M390.71,33.4c2.04-7.49,4-20.85,13.54-20.52,4.41.44,10.75,4.19,10.78,8.94-.15,1.02-.97,1.47-2.13,1.21-2.2-.46-4.96-3.37-7.02-2.69-4.6,2.18-4.78,9.52-5.88,14-1.58,10.34.2,20.97,2.39,30.99,1.06,4.19,2.34,8.69,4.88,12.2,2.11,2.94,6.01,3.8,9.18,2.16,3.63-1.5,5.14-5.74,7.65-8.21,1.57-1.84,4.62-2.01,4.98.68-.33,9.05-12.59,18.01-21.46,16.61-16.06-4.81-18.5-40.7-16.98-54.9l.08-.48Z"/>
        <path d="M440.72,45.05c-.72,9.41-11.32,19.59-19.98,12.36-8.27-8.42-5.14-24.34,2.51-32.33,13.63-12.52,19.78,8.37,17.56,19.45l-.08.51ZM424.09,43.61c-.81,5.96,3.71,14.76,9.14,7.16,2.51-3.87,2.73-9.21,2.35-14.02-.27-3.94-1.27-8.38-3.14-8.43-1.25-.04-2.09.98-2.9,1.93-2.65,3.7-4.89,8.34-5.4,12.84l-.05.52Z"/>
        <g>
          <path d="M549.85,87.1c-1.59-.62-2.33-2.27-1.53-3.52,1.76-2.37,5.7-2.07,8.41-2.46,3.92.18,20.55-5.81,17.91,2.24-.92,1.57-2.92,2.12-4.66,2.39-6.76.52-13.46,2.43-19.8,1.48l-.33-.13Z"/>
          <path d="M553.88,87.99c-1.27,0-2.53-.08-3.77-.26l-.11-.03-.33-.13c-.99-.39-1.74-1.14-2.03-2.05-.25-.76-.15-1.54.27-2.21,1.53-2.07,4.37-2.29,6.88-2.5.66-.05,1.3-.1,1.88-.19,1.07.04,2.95-.33,5.13-.77,4.89-.97,10.97-2.18,12.97.08.74.84.86,2.04.36,3.58l-.04.1c-1.06,1.83-3.37,2.38-5.02,2.63-2.27.18-4.54.51-6.73.83-3.12.45-6.31.92-9.45.92ZM550.32,86.75c4.13.6,8.37-.01,12.86-.67,2.21-.32,4.49-.65,6.76-.83,1.39-.22,3.38-.68,4.24-2.1.37-1.17.32-2-.17-2.56-1.62-1.83-7.63-.63-12.03.24-2.24.45-4.17.83-5.27.78-.51.08-1.17.14-1.85.19-2.3.18-4.9.39-6.14,2.06-.31.49-.25,1-.14,1.33.2.62.75,1.16,1.45,1.43l.28.11Z"/>
        </g>
        <g>
          <path d="M489.95,109.27c-.41,2.76-2.06,4.74-3.59,3.87-1.36-.78-2.82-2.65-2.9-4.11-.16-2.76,2.03-4.98,3.72-4.75,1.78.25,3.12,2.66,2.77,4.98Z"/>
          <path d="M487.1,113.85c-.34,0-.67-.09-.99-.28-1.45-.83-3.06-2.84-3.15-4.51-.09-1.62.55-3.22,1.71-4.29.8-.74,1.75-1.09,2.57-.98.82.12,1.6.62,2.19,1.41.85,1.13,1.22,2.68,1.01,4.14h0c-.3,2.03-1.25,3.72-2.43,4.29-.3.15-.6.22-.9.22ZM486.92,104.77c-.49,0-1.07.26-1.58.73-.95.87-1.47,2.18-1.39,3.5.07,1.29,1.46,3.02,2.65,3.7.31.18.63.19.96.03.88-.43,1.63-1.85,1.88-3.53h0c.17-1.19-.14-2.49-.82-3.4-.43-.58-.98-.94-1.53-1.02-.06,0-.12-.01-.18-.01Z"/>
        </g>
        <g>
          <path d="M590.28,111.06c.05-2.71,1.61-3.18,3.24-3.1,2.19.1,2.23,2.12,1.82,3.37-.41,1.26-1.8,3.07-2.77,3.08-2.19.02-2.52-1.96-2.29-3.35Z"/>
          <path d="M592.55,114.91c-.89,0-1.62-.3-2.11-.88-.85-.99-.74-2.41-.65-3.01.03-1.24.36-2.16,1-2.76.63-.59,1.53-.85,2.77-.8,1.15.05,1.75.57,2.04,1,.77,1.11.37,2.59.23,3.02-.44,1.36-1.96,3.42-3.24,3.43-.01,0-.02,0-.03,0ZM593.22,108.45c-.81,0-1.37.17-1.75.53-.44.41-.67,1.11-.68,2.09v.07c-.16.92,0,1.76.41,2.24.31.36.77.54,1.38.53.62,0,1.91-1.54,2.3-2.74.2-.62.3-1.56-.1-2.14-.25-.36-.66-.55-1.27-.57-.1,0-.19,0-.28,0Z"/>
        </g>
        <g>
          <path class="cls-1" d="M503.49,209.11c-3.03,8.14-3.59,17.53-5.82,26.03-.39,1.41-.98,2.72-2.15,3.69-3.46,3.05-6.86-1.62-6.86-5.05,1.13-8.48,3.84-16.72,4.52-25.44,1.25-8.6,3.46-17.04,5.67-25.37.86-2.61,2.48-5.37,5.22-6.25,4.48-.99,9.44-.11,13.82-.2,1.82.11,4.24.23,5.64,1.5.92.85,1.1,2.47,1.12,3.84.2,9.46-6.17,13.79-13.16,17.34-3.27,1.67-5.17,2.72-1.43,5.33,8.82,5.77,18.1,11.33,27.1,17.07,3.32,2.21,2.1-1.43,2.22-3.51-.3-7.84-.7-15.65-.77-23.51-.03-1.11.16-2.53.84-3.33.92-1.34,3.27-1.55,5.19-1.3,2.96.32,6.03-.2,8.95,0,2.2.02,3.89,4.32,1.4,5.28-2.88,1.27-7.96-1.07-9.8,2.03-.42,1.6-.04,3.48-.03,5.16.25,1.8-.13,3.82.72,5.47,1.51,1.38,4.67.05,6.66.12,2.07.01,6.07-1.23,7.16.86-1.49,11.11-14.1-1.84-13.14,10.42.18,2.95-.16,6.29,1.54,8.78,4.68,4.68,12.57,3.18,17.77-.15,1.9-.96,4.17.81,3.85,2.88-1.01,4.09-5.63,4.65-9.11,5.26-5.01,1.74-10.23,1-15.21-.7-1.21-.14-2.97.37-4.16-.23-1.32-.46-1.38-2.61-2.47-3.31-11.75-7.46-23.57-14.88-35.08-22.78l-.21.06ZM504.22,197.38c3.39-1.73,6.36-2.81,8.8-4.61,2.93-2.15,5.61-4.82,5.86-8.84.05-.78-.72-2.33-1-2.31-3.32.3-6.64.77-9.92,1.38-.44.08-.87,1.11-1.02,1.77-.91,3.99-1.73,7.99-2.72,12.61Z"/>
          <path class="cls-1" d="M493.19,240.31c-.49,0-.97-.11-1.45-.32-2.22-1.01-3.59-4.01-3.59-6.21.5-3.76,1.3-7.47,2.08-11.05,1.01-4.68,2.06-9.52,2.44-14.42,1.3-8.92,3.63-17.71,5.68-25.46.82-2.47,2.44-5.6,5.55-6.6,3.07-.68,6.28-.51,9.38-.35,1.6.08,3.11.16,4.58.13h.17c1.82.12,4.31.27,5.82,1.63,1.12,1.03,1.27,2.89,1.28,4.2.21,10.01-6.82,14.44-13.43,17.79-1.55.79-3.16,1.61-3.21,2.38-.02.35.28,1.01,1.84,2.1,5.12,3.35,10.5,6.7,15.71,9.93,3.74,2.33,7.61,4.73,11.37,7.13,1.12.75,1.41.6,1.41.59.25-.15.15-1.39.1-2.06-.04-.56-.09-1.14-.06-1.65-.07-1.78-.15-3.6-.22-5.42-.24-5.91-.5-12.01-.55-18.05-.02-.74.04-2.58.96-3.66,1.28-1.87,4.64-1.6,5.64-1.47,1.54.16,3.17.09,4.74.02,1.38-.06,2.8-.12,4.19-.03,1.53.01,2.76,1.63,3.04,3.19.26,1.43-.32,2.6-1.5,3.05-1.23.54-2.82.47-4.35.4-2.15-.1-4.19-.19-5.16,1.36-.25,1-.16,2.17-.08,3.31.04.56.08,1.12.09,1.65.08.57.1,1.24.11,1.88.02,1.19.05,2.32.51,3.29.85.69,2.41.43,3.92.18.85-.14,1.64-.27,2.36-.25.46,0,1.12-.07,1.8-.16,2.14-.26,4.81-.58,5.78,1.28l.07.14-.02.16c-.79,5.93-4.7,5.54-7.85,5.23-1.79-.18-3.48-.34-4.41.57-.77.75-1.06,2.23-.88,4.51.04.61.05,1.24.07,1.86.06,2.36.12,4.81,1.38,6.67,4.24,4.23,11.82,3.08,17.09-.29,1.08-.55,2.28-.44,3.27.28,1.01.73,1.53,1.92,1.35,3.1-1.05,4.23-5.42,4.98-8.93,5.58l-.58.1c-4.4,1.54-9.47,1.32-15.41-.7-.39-.04-.85,0-1.35.03-.96.07-2.05.14-2.93-.3-.86-.29-1.27-1.19-1.64-1.99-.26-.57-.51-1.1-.88-1.34l-3.7-2.35c-10.24-6.49-20.82-13.19-31.01-20.18-1.68,4.68-2.59,9.85-3.47,14.85-.62,3.55-1.27,7.22-2.18,10.69-.34,1.23-.91,2.79-2.32,3.95-.82.73-1.73,1.1-2.64,1.1ZM509.13,176.74c-1.69,0-3.37.11-4.97.46-2.67.86-4.12,3.7-4.86,5.92-2.04,7.7-4.36,16.46-5.65,25.28-.38,4.94-1.44,9.81-2.46,14.52-.77,3.57-1.57,7.26-2.06,10.91,0,2.07,1.37,4.5,3,5.24,1.02.46,2.03.25,3.03-.63.94-.77,1.56-1.83,2-3.45.9-3.42,1.54-7.07,2.16-10.6.91-5.21,1.86-10.59,3.68-15.47l.09-.24.68-.19.19.13c10.3,7.07,21,13.86,31.36,20.42l3.7,2.35c.62.4.94,1.1,1.25,1.77.31.67.6,1.31,1.12,1.49.69.34,1.6.28,2.47.22.56-.04,1.09-.07,1.58-.02l.1.02c5.74,1.96,10.61,2.18,14.89.7l.66-.12c3.4-.58,7.24-1.24,8.12-4.79.11-.76-.25-1.58-.96-2.1-.68-.49-1.49-.57-2.19-.22-5.39,3.45-13.47,4.95-18.35.05-1.49-2.18-1.56-4.78-1.62-7.28-.01-.62-.03-1.23-.07-1.82-.2-2.59.18-4.32,1.17-5.3,1.27-1.24,3.27-1.04,5.21-.85,3.1.31,6.02.59,6.73-4.2-.74-1.1-2.84-.85-4.7-.63-.71.09-1.41.17-1.94.16-.62-.02-1.38.1-2.17.23-1.7.28-3.63.6-4.82-.49l-.11-.14c-.61-1.2-.64-2.52-.66-3.81-.01-.64-.03-1.25-.11-1.83,0-.58-.05-1.11-.09-1.65-.09-1.24-.19-2.52.13-3.7l.05-.13c1.26-2.12,3.72-2.01,6.1-1.9,1.42.06,2.88.13,3.92-.33,1.02-.39.99-1.39.89-1.95-.2-1.14-1.09-2.36-2.09-2.37-1.35-.09-2.75-.03-4.1.03-1.61.07-3.27.14-4.9-.03-1.7-.22-3.94-.06-4.73,1.08-.51.61-.78,1.73-.75,3.04.06,6.03.31,12.13.55,18.03.08,1.82.15,3.65.22,5.47-.02.49.02,1.04.06,1.57.1,1.3.2,2.53-.59,3-.56.33-1.32.14-2.46-.62-3.75-2.39-7.61-4.79-11.35-7.12-5.21-3.24-10.6-6.59-15.74-9.95-1.64-1.15-2.34-2.07-2.28-3,.09-1.32,1.71-2.15,3.75-3.2,6.34-3.22,13.08-7.45,12.89-16.89-.02-1.77-.33-2.9-.95-3.48-1.24-1.12-3.44-1.25-5.2-1.36h-.13c-1.46.03-2.99-.05-4.61-.14-1.36-.07-2.73-.14-4.1-.14ZM503.51,198.3l.95-4.49c.67-3.19,1.31-6.2,1.99-9.16.02-.08.46-1.97,1.42-2.15,3.4-.63,6.75-1.09,9.96-1.38.19-.02.37.06.54.22.42.41,1.05,1.77,1,2.62-.27,4.41-3.38,7.24-6.06,9.21-1.7,1.25-3.67,2.17-5.76,3.15-.99.46-2.03.95-3.11,1.5l-.94.48ZM517.74,182.14c-3.13.29-6.39.74-9.69,1.35-.12.07-.47.7-.63,1.39-.67,2.96-1.31,5.96-1.98,9.14l-.52,2.44c.76-.37,1.5-.72,2.21-1.05,2.13-1,3.97-1.86,5.59-3.05,2.66-1.95,5.41-4.49,5.65-8.46.03-.48-.39-1.45-.63-1.76Z"/>
        </g>
        <g>
          <path class="cls-1" d="M470.93,245.2c-4.25-1.88-2.18-7.48-1.99-11.06.37-8.63.8-17.65,1.26-26.38,0-.84-.06-2.2-.96-1.5-4.12,6.35-6.88,13.89-11.21,20.18-1.94,1.86-5.59-.25-5.31-2.77.98-5.67,2.52-11.09,3.53-16.97.08-.62-.05-.74-.47-.24-4.71,6.13-7.97,13.62-12.27,20-.59.86-1.43,1.73-2.4,2.03-5.53.97-.51-14.84-.6-18.06,1.05-6.9-2.71-4.32-6.24-1.39-1.12.9-2.26,1.77-3.59,2.17-2.3.95-4.49-1.16-3.31-3.31.64-1.2,1.93-2.04,3.04-2.8,4.54-2.62,8.49-6.59,13.32-8.84,3.18-1.32,3.07,3.02,3.38,5.19.17,1.61.31,3.2.44,4.75.16,1.42.17,3.56.6,3.34,2.53-3.68,9.51-18.35,14.23-10,.73.97,1.15,3.37,1.98,3.9,1.66-.72,2.63-3.16,3.99-4.57,1.51-1.86,3.51-4.54,6.16-3.48,6.38,2.58,1.51,34.72,1.06,41.76-.33,2.92-1.18,7.16-4.31,8.1l-.33-.03Z"/>
          <path class="cls-1" d="M471.31,245.74l-.58-.08c-3.69-1.63-3.08-5.75-2.58-9.07.13-.89.26-1.74.3-2.48.36-8.48.8-17.6,1.26-26.38,0-.66-.05-.97-.1-1.11-1.89,2.94-3.54,6.2-5.13,9.35-1.83,3.63-3.72,7.38-6.04,10.75l-.07.08c-1,.96-2.5,1.12-3.92.42-1.5-.74-2.39-2.19-2.23-3.6.49-2.83,1.12-5.61,1.73-8.31.57-2.51,1.16-5.1,1.64-7.76-2.4,3.27-4.47,6.94-6.47,10.5-1.64,2.91-3.33,5.93-5.2,8.69-.46.67-1.41,1.85-2.67,2.23-.94.17-1.66-.03-2.2-.58-1.96-1.99-.74-8.27.24-13.31.4-2.05.74-3.82.72-4.63.45-3.04-.08-3.69-.34-3.83-1-.57-3.97,1.89-5.08,2.81-1.18.95-2.35,1.84-3.77,2.27-1.27.53-2.69.24-3.58-.75-.81-.9-.93-2.16-.32-3.29.66-1.24,1.91-2.1,3.02-2.85l.18-.12c1.96-1.13,3.82-2.53,5.63-3.87,2.44-1.82,4.96-3.71,7.76-5.01.92-.38,1.69-.39,2.31-.02,1.27.76,1.49,2.88,1.66,4.58.04.37.07.71.12,1.01.17,1.63.31,3.23.45,4.78.04.36.07.78.1,1.19.03.33.06.75.1,1.11.28-.45.6-.99.95-1.57,2.48-4.15,6.24-10.47,9.91-10.38,1.42.02,2.66.96,3.7,2.79.32.42.6,1.16.87,1.87.22.6.49,1.32.76,1.67.79-.48,1.45-1.45,2.09-2.4.45-.67.92-1.36,1.46-1.91l.18-.22c1.54-1.91,3.66-4.52,6.53-3.37,5.18,2.09,3.71,19.94,1.93,36.51-.27,2.52-.48,4.51-.56,5.74-.21,1.85-.84,7.4-4.67,8.54l-.09.03ZM471.05,244.71h.14c2.1-.67,3.36-3.18,3.87-7.64.08-1.23.29-3.23.56-5.76,1.17-10.87,3.6-33.49-1.31-35.48-2.19-.87-3.96,1.32-5.38,3.07l-.21.26c-.5.52-.93,1.15-1.38,1.81-.8,1.18-1.62,2.39-2.81,2.9l-.24.1-.22-.14c-.61-.39-.97-1.34-1.35-2.35-.24-.64-.49-1.31-.76-1.67-.88-1.56-1.84-2.32-2.88-2.34,0,0-.02,0-.03,0-3.1,0-6.8,6.19-9.01,9.9-.59.98-1.09,1.83-1.5,2.42l-.07.1-.11.06c-.19.1-.4.1-.58,0-.42-.24-.51-.85-.64-2.56-.03-.4-.06-.81-.1-1.17-.14-1.56-.28-3.15-.44-4.76-.04-.29-.08-.65-.12-1.03-.14-1.4-.34-3.32-1.18-3.82-.34-.2-.79-.18-1.39.07-2.68,1.25-5.17,3.11-7.57,4.9-1.83,1.36-3.72,2.78-5.69,3.92l-.15.1c-1.01.69-2.16,1.47-2.7,2.5-.41.76-.34,1.56.18,2.15.6.67,1.58.85,2.5.47,1.29-.39,2.37-1.21,3.47-2.1,2.84-2.35,4.87-3.66,6.21-2.91.98.56,1.25,2.07.84,4.76.03.83-.3,2.56-.73,4.76-.83,4.3-2.1,10.8-.51,12.42.19.19.53.44,1.26.31.91-.28,1.69-1.26,2.08-1.82,1.84-2.73,3.52-5.72,5.15-8.62,2.18-3.87,4.43-7.88,7.13-11.4.17-.21.54-.66,1.01-.46.47.2.39.79.35,1.07-.52,3.02-1.18,5.94-1.82,8.76-.61,2.68-1.24,5.46-1.72,8.23-.13,1.12.75,2.1,1.69,2.57.8.39,1.93.54,2.75-.21,2.26-3.29,4.13-7,5.94-10.58,1.62-3.21,3.29-6.53,5.24-9.54l.11-.12c.5-.38.87-.32,1.1-.21.6.3.67,1.19.66,2.11-.46,8.8-.9,17.92-1.26,26.4-.04.8-.17,1.66-.31,2.58-.48,3.26-.99,6.63,1.92,7.97Z"/>
        </g>
        <g>
          <path class="cls-1" d="M406.33,242.6c-3.99-.83-3.97-5.14-4.15-8.44-.26-9.28,0-18.75.52-28.19.54-4.28-.31-8.16-.87-12.41-.31-2.39,2.45-2.81,4.31-2.91,6.51-.23,13.03.19,19.5-.23,1.18-.04,2.54-.09,3.57.47,2.07,1.24,2.34,5.34-.97,5.17-4.99,0-9.98-.04-14.66.78-1.23.18-2.35,1.08-2.42,2.39-.09,4.16.01,8.52.26,12.65.12.8.64,1.39,1.44,1.56,3.68.45,7.52-.48,11.26.04,6.64,1.43,1.03,6.39-2.58,5.96-1.94-.1-4.6-.24-6.32-.14-.97.05-2.15.1-2.78.68-1.06,1.33-.74,2.58-.9,4.48.47,15.31-.91,12.92,13.81,12.04,2.15.32,10.92-2.7,10.64.67-6.65,7.85-19.99,6.35-29.32,5.49l-.34-.08Z"/>
          <path class="cls-1" d="M417.96,243.89c-3.64,0-7.27-.34-10.48-.64l-1.25-.16c-4.15-.86-4.36-5.19-4.52-8.35l-.03-.55c-.24-8.5-.06-17.74.52-28.25.43-3.42-.03-6.55-.52-9.87-.12-.81-.24-1.62-.35-2.45-.1-.79.08-1.47.53-2.02.96-1.15,2.88-1.39,4.25-1.46,2.85-.1,5.73-.07,8.52-.05,3.61.03,7.33.06,10.98-.18h.12c1.22-.04,2.61-.08,3.72.54,1.39.83,2.13,2.75,1.66,4.28-.38,1.24-1.43,1.91-2.9,1.83h-.82c-4.6,0-9.35,0-13.73.78-.93.14-1.95.8-2.01,1.93-.09,4.01,0,8.37.26,12.59.09.56.47.98,1.05,1.1,1.7.2,3.46.1,5.32,0,1.93-.11,3.94-.23,5.91.04,3.37.72,3.63,2.29,3.48,3.16-.35,2.07-3.65,4.1-6.2,3.8-1.54-.08-4.45-.24-6.23-.14-.92.05-1.98.1-2.46.55-.63.81-.65,1.64-.68,2.8,0,.42-.02.87-.06,1.37.04,1.2.07,2.35.09,3.38.11,4.85.17,7.28,1.19,8.2.93.83,2.98.65,6.69.33,1.52-.13,3.23-.28,5.31-.41h.05s.05,0,.05,0c.59.09,1.92-.14,3.32-.38,2.8-.48,5.97-1.03,7.21.11.28.25.59.71.53,1.47v.16s-.12.12-.12.12c-4.35,5.14-11.41,6.38-18.4,6.38ZM410.91,191.07c-1.58,0-3.18.02-4.75.07-1.81.1-2.99.47-3.52,1.1-.27.33-.37.74-.31,1.25.11.82.23,1.63.34,2.44.5,3.39.97,6.59.53,10.1-.58,10.45-.76,19.66-.52,28.12l.03.54c.16,3.15.33,6.72,3.72,7.42l.35.08.79.07c9.12.85,21.6,2.01,27.92-5.27,0-.28-.12-.42-.21-.5-.88-.81-4.05-.26-6.37.14-1.51.26-2.82.48-3.58.39-2.04.12-3.73.27-5.23.4-4.12.36-6.19.54-7.45-.58-1.35-1.21-1.4-3.62-1.52-8.92-.02-1.03-.05-2.17-.09-3.43.04-.53.05-.96.06-1.36.03-1.25.05-2.32.95-3.45.8-.75,2.07-.82,3.08-.87,1.75-.1,4.24.02,6.43.14,2.17.25,4.89-1.55,5.12-2.96.2-1.21-1.59-1.78-2.67-2.01-1.84-.25-3.79-.14-5.67-.03-1.82.11-3.71.22-5.54,0-1.04-.22-1.72-.96-1.88-1.98-.26-4.3-.35-8.68-.27-12.73.08-1.46,1.25-2.64,2.85-2.87,4.45-.79,9.25-.79,13.89-.79h.85c1.02.05,1.67-.34,1.91-1.12.33-1.08-.23-2.54-1.2-3.12-.86-.48-2.1-.44-3.19-.41h-.1c-3.66.24-7.41.21-11.03.18-1.22-.01-2.47-.02-3.71-.02Z"/>
        </g>
        <g>
          <path class="cls-1" d="M610.6,185.9c6.66,1.37,7.2,10.16,6.86,15.7-.4,2.53-2.98,4.9-5.22,5.37-2.44.95-6.58.94-7.85,3.49-.54,5.21-.68,10.32,2.15,15.22,1.35,2.4,3.87,1.97,5.56.23,2.82-1.52,13.52-16.28,15.48-10.35.37,1.49-1.07,2.84-1.82,3.84-1.55,2.11-3.11,4.07-5.2,5.72-4.53,3.43-9.43,9.41-15.54,8.88-10.45-2.47-11.9-23.97-9.49-32.51,2.7-6.22,5.97-17.36,14.74-15.65l.33.06ZM604.65,203.62c.24.27.48.54.72.81,2.31-1.56,5.43-2.64,6.7-4.8,1.39-2.37.49-5.6-1.75-8.06-3.8,3.24-4.62,7.7-5.67,12.05Z"/>
          <path class="cls-1" d="M605.78,234.53c-.27,0-.53-.01-.8-.04-2.79-.65-5.08-2.53-6.88-5.6-4.53-7.71-4.83-21.24-3.05-27.55.34-.79.67-1.59,1.01-2.43,2.6-6.4,6.17-15.16,14.31-13.57l.34.06c7.1,1.46,7.59,10.79,7.25,16.22-.46,2.89-3.27,5.34-5.62,5.83-.68.27-1.55.47-2.48.68-2.05.46-4.16.94-4.98,2.47-.5,4.83-.73,9.95,2.1,14.83.47.83,1.09,1.3,1.85,1.4.94.12,2.03-.35,2.92-1.27l.12-.09c.77-.42,2.38-2.12,4.08-3.92,4.49-4.76,8.12-8.36,10.49-7.84.76.17,1.31.74,1.62,1.69.37,1.51-.69,2.8-1.46,3.75-.16.19-.31.38-.44.55-1.39,1.89-3.06,4.05-5.29,5.81-1.03.78-2.05,1.67-3.14,2.62-3.46,3.01-7.36,6.4-11.95,6.4ZM608.55,186.17c-6.23,0-9.29,7.52-11.57,13.13-.34.85-.67,1.65-.99,2.39-1.71,6.07-1.43,19.23,2.97,26.7,1.66,2.82,3.74,4.54,6.17,5.12,4.45.38,8.25-2.93,11.94-6.14,1.1-.96,2.14-1.86,3.19-2.65,1.92-1.51,3.38-3.27,5.1-5.61.14-.19.3-.38.47-.59.71-.87,1.52-1.86,1.27-2.84-.29-.86-.73-.96-.88-.99-2-.44-6.54,4.36-9.54,7.55-1.86,1.97-3.34,3.54-4.27,4.08-1.1,1.11-2.48,1.67-3.71,1.51-.75-.1-1.81-.5-2.59-1.9-2.99-5.17-2.74-10.5-2.22-15.52l.05-.17c1-2.01,3.49-2.58,5.69-3.08.89-.2,1.73-.39,2.42-.66,2.06-.44,4.53-2.58,4.91-4.99.31-5.06-.1-13.81-6.46-15.13l-.32-.06c-.57-.11-1.11-.16-1.63-.16ZM605.29,205.09l-1.19-1.33.28-1.18c.96-4.06,1.96-8.27,5.61-11.39l.37-.31.33.36c2.51,2.74,3.24,6.22,1.82,8.65-.95,1.62-2.81,2.65-4.62,3.65-.76.42-1.54.85-2.23,1.32l-.36.24ZM605.2,203.48l.26.3c.62-.4,1.29-.77,1.94-1.12,1.76-.97,3.43-1.89,4.24-3.28,1.14-1.95.58-4.75-1.37-7.1-3.1,2.87-3.98,6.59-4.91,10.53l-.16.68Z"/>
        </g>
        <g>
          <path class="cls-1" d="M589.98,212.67c-3.58,8.76-9.91,16.44-17.91,21.56-5.25,2.43-4.73-5.33-4.58-8.53.44-8.69.38-17.53.27-26.32.15-2.83-1.34-6.08,1.07-8.25,1.55-1.57,3.4-2.15,5.24-1.53,2.54.55,5.06,1.18,7.58,1.83,11.3,2.48,11.15,11.8,8.41,20.96l-.09.28ZM580.51,195.81c-1.16-.15-5.34-1.77-5.78.92-.23,8.29.59,16.62.97,24.9.06.86.41,2.11.95,2.7.2.1.54-.3.81-.45,4.54-4.44,7.36-10.61,9.09-16.71,1.82-5.42-.77-9.73-5.82-11.29l-.22-.07Z"/>
          <path class="cls-1" d="M570.26,235.19c-.55,0-1.04-.15-1.47-.43-2.17-1.46-1.95-6.07-1.81-8.83v-.25c.45-8.8.39-17.81.28-26.29.04-.83-.06-1.7-.15-2.53-.25-2.16-.5-4.39,1.39-6.09,1.7-1.72,3.74-2.31,5.73-1.63,2.73.59,5.47,1.28,7.54,1.81,4.1.9,7.03,2.78,8.68,5.58,2.17,3.68,2.2,8.92.08,16.01l-.1.32c-3.64,8.92-10.07,16.65-18.1,21.79-.77.36-1.47.54-2.08.54ZM572.6,189.86c-1.2,0-2.35.55-3.41,1.62-1.53,1.37-1.31,3.26-1.08,5.25.1.88.2,1.79.16,2.67.1,8.46.17,17.5-.27,26.32v.25c-.12,2.21-.35,6.8,1.36,7.95.59.4,1.43.35,2.51-.15,7.79-4.99,14.08-12.55,17.65-21.27l.08-.26c2.03-6.8,2.03-11.78.01-15.21-1.51-2.56-4.22-4.28-8.05-5.12-2.08-.53-4.81-1.22-7.58-1.83-.46-.16-.92-.23-1.37-.23ZM576.71,224.84c-.09,0-.19-.02-.29-.07l-.15-.11c-.62-.67-1.01-2.01-1.08-3-.11-2.49-.26-4.97-.42-7.45-.35-5.74-.72-11.67-.55-17.51.12-.74.43-1.24.93-1.58,1.23-.82,3.25-.32,4.6,0,.34.08.62.15.82.18l.3.09c2.73.85,4.75,2.44,5.86,4.59,1.09,2.12,1.19,4.66.29,7.34-2.06,7.25-5.16,12.94-9.22,16.91l-.11.08c-.07.04-.14.1-.22.16-.19.15-.46.37-.76.37ZM576.93,195.69c-.48,0-.91.07-1.22.28-.27.18-.43.45-.49.84-.16,5.72.21,11.63.56,17.35.15,2.49.3,4.97.42,7.45.05.67.28,1.57.62,2.12.01-.01.03-.02.04-.03.1-.08.2-.16.3-.22,3.91-3.84,6.91-9.37,8.92-16.45.82-2.44.74-4.71-.23-6.58-.98-1.91-2.8-3.33-5.26-4.1l-.18-.06c-.22-.03-.52-.1-.88-.19-.71-.17-1.73-.42-2.59-.42Z"/>
        </g>
        <path d="M485.69,20.6c0,2.96-2.82,6.53-5.21,6.63-2.14.09-5.03-2.64-5.08-4.8-.07-3.28,3.05-7.28,5.66-7.24,2.58.03,4.65,2.44,4.64,5.4Z"/>
      </g>
    </g>
  </g>
</svg>